%TF.GenerationSoftware,KiCad,Pcbnew,(6.0.1)*%
%TF.CreationDate,2022-02-22T15:36:59+00:00*%
%TF.ProjectId,Phantom Power Supply,5068616e-746f-46d2-9050-6f7765722053,rev?*%
%TF.SameCoordinates,Original*%
%TF.FileFunction,Copper,L1,Top*%
%TF.FilePolarity,Positive*%
%FSLAX46Y46*%
G04 Gerber Fmt 4.6, Leading zero omitted, Abs format (unit mm)*
G04 Created by KiCad (PCBNEW (6.0.1)) date 2022-02-22 15:36:59*
%MOMM*%
%LPD*%
G01*
G04 APERTURE LIST*
G04 Aperture macros list*
%AMRoundRect*
0 Rectangle with rounded corners*
0 $1 Rounding radius*
0 $2 $3 $4 $5 $6 $7 $8 $9 X,Y pos of 4 corners*
0 Add a 4 corners polygon primitive as box body*
4,1,4,$2,$3,$4,$5,$6,$7,$8,$9,$2,$3,0*
0 Add four circle primitives for the rounded corners*
1,1,$1+$1,$2,$3*
1,1,$1+$1,$4,$5*
1,1,$1+$1,$6,$7*
1,1,$1+$1,$8,$9*
0 Add four rect primitives between the rounded corners*
20,1,$1+$1,$2,$3,$4,$5,0*
20,1,$1+$1,$4,$5,$6,$7,0*
20,1,$1+$1,$6,$7,$8,$9,0*
20,1,$1+$1,$8,$9,$2,$3,0*%
G04 Aperture macros list end*
%ADD10C,0.300000*%
%TA.AperFunction,NonConductor*%
%ADD11C,0.300000*%
%TD*%
%TA.AperFunction,ComponentPad*%
%ADD12O,1.700000X1.700000*%
%TD*%
%TA.AperFunction,ComponentPad*%
%ADD13R,1.700000X1.700000*%
%TD*%
%TA.AperFunction,SMDPad,CuDef*%
%ADD14R,1.560000X0.650000*%
%TD*%
%TA.AperFunction,SMDPad,CuDef*%
%ADD15RoundRect,0.250000X0.450000X-0.350000X0.450000X0.350000X-0.450000X0.350000X-0.450000X-0.350000X0*%
%TD*%
%TA.AperFunction,SMDPad,CuDef*%
%ADD16RoundRect,0.250000X0.350000X0.450000X-0.350000X0.450000X-0.350000X-0.450000X0.350000X-0.450000X0*%
%TD*%
%TA.AperFunction,SMDPad,CuDef*%
%ADD17RoundRect,0.250000X-0.350000X-0.450000X0.350000X-0.450000X0.350000X0.450000X-0.350000X0.450000X0*%
%TD*%
%TA.AperFunction,SMDPad,CuDef*%
%ADD18R,5.800000X6.400000*%
%TD*%
%TA.AperFunction,SMDPad,CuDef*%
%ADD19R,1.200000X2.200000*%
%TD*%
%TA.AperFunction,SMDPad,CuDef*%
%ADD20R,2.700000X3.600000*%
%TD*%
%TA.AperFunction,SMDPad,CuDef*%
%ADD21R,3.300000X1.700000*%
%TD*%
%TA.AperFunction,SMDPad,CuDef*%
%ADD22R,1.800000X3.500000*%
%TD*%
%TA.AperFunction,ComponentPad*%
%ADD23R,2.000000X2.000000*%
%TD*%
%TA.AperFunction,ComponentPad*%
%ADD24C,2.000000*%
%TD*%
%TA.AperFunction,SMDPad,CuDef*%
%ADD25RoundRect,0.237500X0.237500X-0.300000X0.237500X0.300000X-0.237500X0.300000X-0.237500X-0.300000X0*%
%TD*%
%TA.AperFunction,SMDPad,CuDef*%
%ADD26RoundRect,0.250000X-0.337500X-0.475000X0.337500X-0.475000X0.337500X0.475000X-0.337500X0.475000X0*%
%TD*%
%TA.AperFunction,SMDPad,CuDef*%
%ADD27RoundRect,0.250000X0.337500X0.475000X-0.337500X0.475000X-0.337500X-0.475000X0.337500X-0.475000X0*%
%TD*%
%TA.AperFunction,SMDPad,CuDef*%
%ADD28RoundRect,0.237500X-0.237500X0.300000X-0.237500X-0.300000X0.237500X-0.300000X0.237500X0.300000X0*%
%TD*%
%TA.AperFunction,SMDPad,CuDef*%
%ADD29RoundRect,0.250000X-0.475000X0.337500X-0.475000X-0.337500X0.475000X-0.337500X0.475000X0.337500X0*%
%TD*%
%TA.AperFunction,ViaPad*%
%ADD30C,0.800000*%
%TD*%
%TA.AperFunction,Conductor*%
%ADD31C,1.000000*%
%TD*%
%TA.AperFunction,Conductor*%
%ADD32C,0.250000*%
%TD*%
G04 APERTURE END LIST*
D10*
D11*
X50999714Y-46398571D02*
X50999714Y-44898571D01*
X51714000Y-45398571D02*
X51714000Y-46398571D01*
X51714000Y-45541428D02*
X51785428Y-45470000D01*
X51928285Y-45398571D01*
X52142571Y-45398571D01*
X52285428Y-45470000D01*
X52356857Y-45612857D01*
X52356857Y-46398571D01*
X52856857Y-45398571D02*
X53428285Y-45398571D01*
X53071142Y-46398571D02*
X53071142Y-45112857D01*
X53142571Y-44970000D01*
X53285428Y-44898571D01*
X53428285Y-44898571D01*
X53928285Y-46398571D02*
X53928285Y-45398571D01*
X53928285Y-44898571D02*
X53856857Y-44970000D01*
X53928285Y-45041428D01*
X53999714Y-44970000D01*
X53928285Y-44898571D01*
X53928285Y-45041428D01*
X54642571Y-45398571D02*
X54642571Y-46398571D01*
X54642571Y-45541428D02*
X54714000Y-45470000D01*
X54856857Y-45398571D01*
X55071142Y-45398571D01*
X55214000Y-45470000D01*
X55285428Y-45612857D01*
X55285428Y-46398571D01*
X56642571Y-45398571D02*
X56642571Y-46398571D01*
X55999714Y-45398571D02*
X55999714Y-46184285D01*
X56071142Y-46327142D01*
X56214000Y-46398571D01*
X56428285Y-46398571D01*
X56571142Y-46327142D01*
X56642571Y-46255714D01*
X57285428Y-46327142D02*
X57428285Y-46398571D01*
X57714000Y-46398571D01*
X57856857Y-46327142D01*
X57928285Y-46184285D01*
X57928285Y-46112857D01*
X57856857Y-45970000D01*
X57714000Y-45898571D01*
X57499714Y-45898571D01*
X57356857Y-45827142D01*
X57285428Y-45684285D01*
X57285428Y-45612857D01*
X57356857Y-45470000D01*
X57499714Y-45398571D01*
X57714000Y-45398571D01*
X57856857Y-45470000D01*
X59713999Y-45612857D02*
X60213999Y-45612857D01*
X60428285Y-46398571D02*
X59713999Y-46398571D01*
X59713999Y-44898571D01*
X60428285Y-44898571D01*
X61285428Y-46398571D02*
X61142571Y-46327142D01*
X61071142Y-46184285D01*
X61071142Y-44898571D01*
X62428285Y-46327142D02*
X62285428Y-46398571D01*
X61999714Y-46398571D01*
X61856857Y-46327142D01*
X61785428Y-46184285D01*
X61785428Y-45612857D01*
X61856857Y-45470000D01*
X61999714Y-45398571D01*
X62285428Y-45398571D01*
X62428285Y-45470000D01*
X62499714Y-45612857D01*
X62499714Y-45755714D01*
X61785428Y-45898571D01*
X63785428Y-46327142D02*
X63642571Y-46398571D01*
X63356857Y-46398571D01*
X63213999Y-46327142D01*
X63142571Y-46255714D01*
X63071142Y-46112857D01*
X63071142Y-45684285D01*
X63142571Y-45541428D01*
X63213999Y-45470000D01*
X63356857Y-45398571D01*
X63642571Y-45398571D01*
X63785428Y-45470000D01*
X64213999Y-45398571D02*
X64785428Y-45398571D01*
X64428285Y-44898571D02*
X64428285Y-46184285D01*
X64499714Y-46327142D01*
X64642571Y-46398571D01*
X64785428Y-46398571D01*
X65285428Y-46398571D02*
X65285428Y-45398571D01*
X65285428Y-45684285D02*
X65356857Y-45541428D01*
X65428285Y-45470000D01*
X65571142Y-45398571D01*
X65713999Y-45398571D01*
X66428285Y-46398571D02*
X66285428Y-46327142D01*
X66213999Y-46255714D01*
X66142571Y-46112857D01*
X66142571Y-45684285D01*
X66213999Y-45541428D01*
X66285428Y-45470000D01*
X66428285Y-45398571D01*
X66642571Y-45398571D01*
X66785428Y-45470000D01*
X66856857Y-45541428D01*
X66928285Y-45684285D01*
X66928285Y-46112857D01*
X66856857Y-46255714D01*
X66785428Y-46327142D01*
X66642571Y-46398571D01*
X66428285Y-46398571D01*
X67571142Y-45398571D02*
X67571142Y-46398571D01*
X67571142Y-45541428D02*
X67642571Y-45470000D01*
X67785428Y-45398571D01*
X67999714Y-45398571D01*
X68142571Y-45470000D01*
X68214000Y-45612857D01*
X68214000Y-46398571D01*
X68928285Y-46398571D02*
X68928285Y-45398571D01*
X68928285Y-44898571D02*
X68856857Y-44970000D01*
X68928285Y-45041428D01*
X68999714Y-44970000D01*
X68928285Y-44898571D01*
X68928285Y-45041428D01*
X70285428Y-46327142D02*
X70142571Y-46398571D01*
X69856857Y-46398571D01*
X69714000Y-46327142D01*
X69642571Y-46255714D01*
X69571142Y-46112857D01*
X69571142Y-45684285D01*
X69642571Y-45541428D01*
X69714000Y-45470000D01*
X69856857Y-45398571D01*
X70142571Y-45398571D01*
X70285428Y-45470000D01*
X70856857Y-46327142D02*
X70999714Y-46398571D01*
X71285428Y-46398571D01*
X71428285Y-46327142D01*
X71499714Y-46184285D01*
X71499714Y-46112857D01*
X71428285Y-45970000D01*
X71285428Y-45898571D01*
X71071142Y-45898571D01*
X70928285Y-45827142D01*
X70856857Y-45684285D01*
X70856857Y-45612857D01*
X70928285Y-45470000D01*
X71071142Y-45398571D01*
X71285428Y-45398571D01*
X71428285Y-45470000D01*
D12*
%TO.P,J2 OUT,2,Pin_2*%
%TO.N,GND*%
X87879000Y-51435000D03*
D13*
%TO.P,J2 OUT,1,Pin_1*%
%TO.N,+48V*%
X85339000Y-51435000D03*
%TD*%
%TO.P,J1 IN,1,Pin_1*%
%TO.N,VDD*%
X95001000Y-51435000D03*
D12*
%TO.P,J1 IN,2,Pin_2*%
%TO.N,GND*%
X92461000Y-51435000D03*
%TD*%
D14*
%TO.P,U1,1,SW*%
%TO.N,Net-(C2-Pad1)*%
X89455000Y-65725000D03*
%TO.P,U1,2,GND*%
%TO.N,GND*%
X89455000Y-66675000D03*
%TO.P,U1,3,FB*%
%TO.N,Net-(R1-Pad2)*%
X89455000Y-67625000D03*
%TO.P,U1,4,EN*%
%TO.N,VDD*%
X92155000Y-67625000D03*
%TO.P,U1,5,VIN*%
X92155000Y-66675000D03*
%TO.P,U1,6,NC*%
%TO.N,unconnected-(U1-Pad6)*%
X92155000Y-65725000D03*
%TD*%
D15*
%TO.P,R4,1*%
%TO.N,Net-(C5-Pad1)*%
X58928000Y-72517000D03*
%TO.P,R4,2*%
%TO.N,Net-(C7-Pad1)*%
X58928000Y-70517000D03*
%TD*%
D16*
%TO.P,R3,2*%
%TO.N,Net-(C5-Pad1)*%
X72152000Y-72113323D03*
%TO.P,R3,1*%
%TO.N,Net-(C4-Pad2)*%
X74152000Y-72113323D03*
%TD*%
D17*
%TO.P,R2,1*%
%TO.N,Net-(R1-Pad2)*%
X82820000Y-66421000D03*
%TO.P,R2,2*%
%TO.N,GND*%
X84820000Y-66421000D03*
%TD*%
%TO.P,R1,1*%
%TO.N,Net-(C4-Pad2)*%
X83693000Y-68834000D03*
%TO.P,R1,2*%
%TO.N,Net-(R1-Pad2)*%
X85693000Y-68834000D03*
%TD*%
D18*
%TO.P,Q1,4,C*%
%TO.N,Net-(C4-Pad2)*%
X66675000Y-53907000D03*
D19*
%TO.P,Q1,3,E*%
%TO.N,+48V*%
X68955000Y-60207000D03*
%TO.P,Q1,2,C*%
%TO.N,Net-(C4-Pad2)*%
X66675000Y-60207000D03*
%TO.P,Q1,1,B*%
%TO.N,Net-(C7-Pad1)*%
X64395000Y-60207000D03*
%TD*%
D20*
%TO.P,L1,1,1*%
%TO.N,VDD*%
X97495000Y-59055000D03*
%TO.P,L1,2,2*%
%TO.N,Net-(C2-Pad1)*%
X89195000Y-59055000D03*
%TD*%
D21*
%TO.P,D5,1,K*%
%TO.N,Net-(C7-Pad1)*%
X57741000Y-67945000D03*
%TO.P,D5,2,A*%
%TO.N,GND*%
X52241000Y-67945000D03*
%TD*%
D22*
%TO.P,D4,2,A*%
%TO.N,+48V*%
X72517000Y-56405323D03*
%TO.P,D4,1,K*%
%TO.N,Net-(C4-Pad2)*%
X72517000Y-61405323D03*
%TD*%
%TO.P,D3,1,K*%
%TO.N,Net-(C4-Pad2)*%
X76200000Y-65365000D03*
%TO.P,D3,2,A*%
%TO.N,Net-(C2-Pad2)*%
X76200000Y-60365000D03*
%TD*%
%TO.P,D2,1,K*%
%TO.N,Net-(C2-Pad2)*%
X80010000Y-60365000D03*
%TO.P,D2,2,A*%
%TO.N,Net-(C3-Pad2)*%
X80010000Y-65365000D03*
%TD*%
%TO.P,D1,1,K*%
%TO.N,Net-(C3-Pad2)*%
X84455000Y-60920000D03*
%TO.P,D1,2,A*%
%TO.N,Net-(C2-Pad1)*%
X84455000Y-55920000D03*
%TD*%
D23*
%TO.P,C8,1*%
%TO.N,+48V*%
X77216000Y-46920323D03*
X79216000Y-46248179D03*
D24*
%TO.P,C8,2*%
%TO.N,GND*%
X77216000Y-51920323D03*
X75216000Y-52592467D03*
%TD*%
%TO.P,C7,2*%
%TO.N,GND*%
X53960533Y-58579000D03*
X54632677Y-60579000D03*
D23*
%TO.P,C7,1*%
%TO.N,Net-(C7-Pad1)*%
X60304821Y-62579000D03*
X59632677Y-60579000D03*
%TD*%
%TO.P,C6,1*%
%TO.N,Net-(C5-Pad1)*%
X65405000Y-70913000D03*
X63405000Y-71585144D03*
D24*
%TO.P,C6,2*%
%TO.N,GND*%
X65405000Y-65913000D03*
X67405000Y-65240856D03*
%TD*%
D25*
%TO.P,C5,1*%
%TO.N,Net-(C5-Pad1)*%
X71755000Y-66371823D03*
%TO.P,C5,2*%
%TO.N,GND*%
X71755000Y-64646823D03*
%TD*%
D26*
%TO.P,C4,1*%
%TO.N,Net-(C3-Pad2)*%
X79734500Y-68580000D03*
%TO.P,C4,2*%
%TO.N,Net-(C4-Pad2)*%
X81809500Y-68580000D03*
%TD*%
D27*
%TO.P,C3,1*%
%TO.N,GND*%
X84857500Y-64135000D03*
%TO.P,C3,2*%
%TO.N,Net-(C3-Pad2)*%
X82782500Y-64135000D03*
%TD*%
D28*
%TO.P,C2,1*%
%TO.N,Net-(C2-Pad1)*%
X81280000Y-55017500D03*
%TO.P,C2,2*%
%TO.N,Net-(C2-Pad2)*%
X81280000Y-56742500D03*
%TD*%
D29*
%TO.P,C1,1*%
%TO.N,VDD*%
X94869000Y-67288500D03*
%TO.P,C1,2*%
%TO.N,GND*%
X94869000Y-69363500D03*
%TD*%
D30*
%TO.N,GND*%
X53594000Y-69977000D03*
X70231000Y-63985323D03*
X93218000Y-69342000D03*
X87757000Y-66675000D03*
X86487000Y-65786000D03*
X86487000Y-63627000D03*
%TD*%
D31*
%TO.N,Net-(C4-Pad2)*%
X80772000Y-70485000D02*
X82423000Y-68834000D01*
X82423000Y-68834000D02*
X82063500Y-68834000D01*
X78232000Y-70485000D02*
X80772000Y-70485000D01*
X83693000Y-68834000D02*
X82423000Y-68834000D01*
X82063500Y-68834000D02*
X81809500Y-68580000D01*
D32*
%TO.N,Net-(R1-Pad2)*%
X85693000Y-67850000D02*
X85918000Y-67625000D01*
X85918000Y-67625000D02*
X89455000Y-67625000D01*
X85693000Y-68834000D02*
X85693000Y-67850000D01*
X84008000Y-67625000D02*
X85918000Y-67625000D01*
X82820000Y-66437000D02*
X84008000Y-67625000D01*
X82820000Y-66421000D02*
X82820000Y-66437000D01*
D31*
%TO.N,+48V*%
X72517000Y-56645000D02*
X68955000Y-60207000D01*
X72517000Y-56405323D02*
X72517000Y-56645000D01*
X72517000Y-51619323D02*
X77216000Y-46920323D01*
X72517000Y-56405323D02*
X72517000Y-51619323D01*
X81730677Y-51435000D02*
X77216000Y-46920323D01*
X85339000Y-51435000D02*
X81730677Y-51435000D01*
%TO.N,VDD*%
X95001000Y-56647000D02*
X95001000Y-51435000D01*
X97409000Y-59055000D02*
X95001000Y-56647000D01*
X97495000Y-59055000D02*
X97409000Y-59055000D01*
%TO.N,Net-(C4-Pad2)*%
X66675000Y-60207000D02*
X66675000Y-53907000D01*
%TO.N,GND*%
X52241000Y-68624000D02*
X53594000Y-69977000D01*
X52241000Y-67945000D02*
X52241000Y-68624000D01*
%TO.N,Net-(C7-Pad1)*%
X62676821Y-60207000D02*
X60304821Y-62579000D01*
X64395000Y-60207000D02*
X62676821Y-60207000D01*
X60304821Y-62579000D02*
X60304821Y-65381179D01*
X60304821Y-65381179D02*
X57741000Y-67945000D01*
X58928000Y-69132000D02*
X57741000Y-67945000D01*
X58928000Y-70517000D02*
X58928000Y-69132000D01*
%TO.N,Net-(C5-Pad1)*%
X61214000Y-72517000D02*
X58928000Y-72517000D01*
X62145856Y-71585144D02*
X61214000Y-72517000D01*
X63405000Y-71585144D02*
X62145856Y-71585144D01*
%TO.N,Net-(C4-Pad2)*%
X66675000Y-61976000D02*
X66675000Y-60207000D01*
X70739000Y-62484000D02*
X67183000Y-62484000D01*
X71817677Y-61405323D02*
X70739000Y-62484000D01*
X72517000Y-61405323D02*
X71817677Y-61405323D01*
X67183000Y-62484000D02*
X66675000Y-61976000D01*
%TO.N,Net-(C2-Pad2)*%
X76200000Y-60365000D02*
X80010000Y-60365000D01*
%TO.N,Net-(C4-Pad2)*%
X76200000Y-68453000D02*
X78232000Y-70485000D01*
X76200000Y-65365000D02*
X76200000Y-68453000D01*
X78232000Y-70485000D02*
X74317677Y-70485000D01*
X74317677Y-70485000D02*
X74295000Y-70462323D01*
%TO.N,GND*%
X70892500Y-64646823D02*
X70231000Y-63985323D01*
X71755000Y-64646823D02*
X70892500Y-64646823D01*
%TO.N,Net-(C5-Pad1)*%
X71755000Y-71716323D02*
X72152000Y-72113323D01*
X71755000Y-66371823D02*
X71755000Y-71716323D01*
X67113323Y-72113323D02*
X66040000Y-71040000D01*
X72152000Y-72113323D02*
X67113323Y-72113323D01*
%TO.N,Net-(C4-Pad2)*%
X74152000Y-72113323D02*
X74152000Y-70605323D01*
X74152000Y-70605323D02*
X74295000Y-70462323D01*
X73406000Y-62294323D02*
X72517000Y-61405323D01*
X73406000Y-69573323D02*
X73406000Y-62294323D01*
X74295000Y-70462323D02*
X73406000Y-69573323D01*
%TO.N,GND*%
X93239500Y-69363500D02*
X93218000Y-69342000D01*
X94869000Y-69363500D02*
X93239500Y-69363500D01*
D32*
X88138000Y-66675000D02*
X87757000Y-66675000D01*
X89455000Y-66675000D02*
X88138000Y-66675000D01*
D31*
X85852000Y-66421000D02*
X86487000Y-65786000D01*
X84820000Y-66421000D02*
X85852000Y-66421000D01*
X85979000Y-64135000D02*
X86487000Y-63627000D01*
X84857500Y-64135000D02*
X85979000Y-64135000D01*
%TO.N,Net-(C3-Pad2)*%
X80010000Y-65365000D02*
X80010000Y-68304500D01*
X80010000Y-68304500D02*
X79734500Y-68580000D01*
X81240000Y-64135000D02*
X80010000Y-65365000D01*
X82782500Y-64135000D02*
X81240000Y-64135000D01*
X82782500Y-61489500D02*
X82782500Y-64135000D01*
X83352000Y-60920000D02*
X82782500Y-61489500D01*
X84455000Y-60920000D02*
X83352000Y-60920000D01*
%TO.N,Net-(C2-Pad2)*%
X81280000Y-59095000D02*
X80010000Y-60365000D01*
X81280000Y-56742500D02*
X81280000Y-59095000D01*
%TO.N,Net-(C2-Pad1)*%
X83552500Y-55017500D02*
X84455000Y-55920000D01*
X81280000Y-55017500D02*
X83552500Y-55017500D01*
X86060000Y-55920000D02*
X89195000Y-59055000D01*
X84455000Y-55920000D02*
X86060000Y-55920000D01*
X89195000Y-65065000D02*
X89535000Y-65405000D01*
X89195000Y-59055000D02*
X89195000Y-65065000D01*
%TO.N,VDD*%
X92434500Y-67288500D02*
X92202000Y-67056000D01*
X94869000Y-67288500D02*
X92434500Y-67288500D01*
X97495000Y-62525000D02*
X92964000Y-67056000D01*
X97495000Y-59055000D02*
X97495000Y-62525000D01*
X92964000Y-67056000D02*
X92202000Y-67056000D01*
X92155000Y-67103000D02*
X92202000Y-67056000D01*
%TD*%
%TA.AperFunction,Conductor*%
%TO.N,VDD*%
G36*
X100018121Y-49550002D02*
G01*
X100064614Y-49603658D01*
X100076000Y-49656000D01*
X100076000Y-68200000D01*
X100055998Y-68268121D01*
X100002342Y-68314614D01*
X99950000Y-68326000D01*
X95663315Y-68326000D01*
X95623649Y-68319593D01*
X95498861Y-68278203D01*
X95492025Y-68277503D01*
X95492022Y-68277502D01*
X95448969Y-68273091D01*
X95394400Y-68267500D01*
X94343600Y-68267500D01*
X94340354Y-68267837D01*
X94340350Y-68267837D01*
X94244692Y-68277762D01*
X94244688Y-68277763D01*
X94237834Y-68278474D01*
X94231298Y-68280655D01*
X94231296Y-68280655D01*
X94114793Y-68319524D01*
X94074917Y-68326000D01*
X92201000Y-68326000D01*
X92132879Y-68305998D01*
X92086386Y-68252342D01*
X92075000Y-68200000D01*
X92075000Y-66684500D01*
X92095002Y-66616379D01*
X92148658Y-66569886D01*
X92201000Y-66558500D01*
X92983134Y-66558500D01*
X93045316Y-66551745D01*
X93181705Y-66500615D01*
X93298261Y-66413261D01*
X93385615Y-66296705D01*
X93436745Y-66160316D01*
X93443500Y-66098134D01*
X93443500Y-65351866D01*
X93436745Y-65289684D01*
X93385615Y-65153295D01*
X93298261Y-65036739D01*
X93181705Y-64949385D01*
X93045316Y-64898255D01*
X92983134Y-64891500D01*
X92201000Y-64891500D01*
X92132879Y-64871498D01*
X92086386Y-64817842D01*
X92075000Y-64765500D01*
X92075000Y-57404000D01*
X90815449Y-54507032D01*
X90805000Y-54456794D01*
X90805000Y-51401695D01*
X91098251Y-51401695D01*
X91098548Y-51406848D01*
X91098548Y-51406851D01*
X91104011Y-51501590D01*
X91111110Y-51624715D01*
X91112247Y-51629761D01*
X91112248Y-51629767D01*
X91132119Y-51717939D01*
X91160222Y-51842639D01*
X91244266Y-52049616D01*
X91360987Y-52240088D01*
X91507250Y-52408938D01*
X91679126Y-52551632D01*
X91872000Y-52664338D01*
X92080692Y-52744030D01*
X92085760Y-52745061D01*
X92085763Y-52745062D01*
X92193017Y-52766883D01*
X92299597Y-52788567D01*
X92304772Y-52788757D01*
X92304774Y-52788757D01*
X92517673Y-52796564D01*
X92517677Y-52796564D01*
X92522837Y-52796753D01*
X92527957Y-52796097D01*
X92527959Y-52796097D01*
X92739288Y-52769025D01*
X92739289Y-52769025D01*
X92744416Y-52768368D01*
X92749366Y-52766883D01*
X92953429Y-52705661D01*
X92953434Y-52705659D01*
X92958384Y-52704174D01*
X93158994Y-52605896D01*
X93340860Y-52476173D01*
X93499096Y-52318489D01*
X93558594Y-52235689D01*
X93626435Y-52141277D01*
X93629453Y-52137077D01*
X93728430Y-51936811D01*
X93793370Y-51723069D01*
X93822529Y-51501590D01*
X93824156Y-51435000D01*
X93805852Y-51212361D01*
X93751431Y-50995702D01*
X93662354Y-50790840D01*
X93541014Y-50603277D01*
X93390670Y-50438051D01*
X93386619Y-50434852D01*
X93386615Y-50434848D01*
X93219414Y-50302800D01*
X93219410Y-50302798D01*
X93215359Y-50299598D01*
X93019789Y-50191638D01*
X93014920Y-50189914D01*
X93014916Y-50189912D01*
X92814087Y-50118795D01*
X92814083Y-50118794D01*
X92809212Y-50117069D01*
X92804119Y-50116162D01*
X92804116Y-50116161D01*
X92594373Y-50078800D01*
X92594367Y-50078799D01*
X92589284Y-50077894D01*
X92515452Y-50076992D01*
X92371081Y-50075228D01*
X92371079Y-50075228D01*
X92365911Y-50075165D01*
X92145091Y-50108955D01*
X91932756Y-50178357D01*
X91734607Y-50281507D01*
X91730474Y-50284610D01*
X91730471Y-50284612D01*
X91706247Y-50302800D01*
X91555965Y-50415635D01*
X91401629Y-50577138D01*
X91275743Y-50761680D01*
X91181688Y-50964305D01*
X91121989Y-51179570D01*
X91098251Y-51401695D01*
X90805000Y-51401695D01*
X90805000Y-49656000D01*
X90825002Y-49587879D01*
X90878658Y-49541386D01*
X90931000Y-49530000D01*
X99950000Y-49530000D01*
X100018121Y-49550002D01*
G37*
%TD.AperFunction*%
%TD*%
%TA.AperFunction,Conductor*%
%TO.N,Net-(C2-Pad1)*%
G36*
X89985121Y-53614002D02*
G01*
X90031614Y-53667658D01*
X90043000Y-53720000D01*
X90043000Y-55499000D01*
X90920179Y-57378669D01*
X90932000Y-57431953D01*
X90932000Y-65110140D01*
X90923982Y-65154370D01*
X90873255Y-65289684D01*
X90866500Y-65351866D01*
X90866500Y-65966431D01*
X90846498Y-66034552D01*
X90792842Y-66081045D01*
X90722568Y-66091149D01*
X90657988Y-66061655D01*
X90639674Y-66041996D01*
X90603643Y-65993920D01*
X90603642Y-65993919D01*
X90598261Y-65986739D01*
X90481705Y-65899385D01*
X90345316Y-65848255D01*
X90283134Y-65841500D01*
X88772000Y-65841500D01*
X88703879Y-65821498D01*
X88657386Y-65767842D01*
X88646000Y-65715500D01*
X88646000Y-60960000D01*
X87756000Y-60960000D01*
X87687879Y-60939998D01*
X87641386Y-60886342D01*
X87630000Y-60834000D01*
X87630000Y-58547000D01*
X83057000Y-58547000D01*
X82988879Y-58526998D01*
X82942386Y-58473342D01*
X82931000Y-58421000D01*
X82931000Y-55626000D01*
X80771000Y-55626000D01*
X80702879Y-55605998D01*
X80656386Y-55552342D01*
X80645000Y-55500000D01*
X80645000Y-53720000D01*
X80665002Y-53651879D01*
X80718658Y-53605386D01*
X80771000Y-53594000D01*
X89917000Y-53594000D01*
X89985121Y-53614002D01*
G37*
%TD.AperFunction*%
%TD*%
%TA.AperFunction,Conductor*%
%TO.N,Net-(C4-Pad2)*%
G36*
X70427121Y-48055502D02*
G01*
X70473614Y-48109158D01*
X70485000Y-48161500D01*
X70485000Y-57198576D01*
X70464998Y-57266697D01*
X70448095Y-57287671D01*
X69352671Y-58383095D01*
X69290359Y-58417121D01*
X69263576Y-58420000D01*
X55573056Y-58420000D01*
X55504935Y-58399998D01*
X55458442Y-58346342D01*
X55450537Y-58323414D01*
X55400793Y-58116218D01*
X55399638Y-58111406D01*
X55308773Y-57892037D01*
X55306187Y-57887817D01*
X55187292Y-57693798D01*
X55187288Y-57693792D01*
X55184709Y-57689584D01*
X55030502Y-57509031D01*
X54849949Y-57354824D01*
X54845741Y-57352245D01*
X54845735Y-57352241D01*
X54651716Y-57233346D01*
X54647496Y-57230760D01*
X54642926Y-57228867D01*
X54642922Y-57228865D01*
X54432700Y-57141789D01*
X54432698Y-57141788D01*
X54428127Y-57139895D01*
X54347924Y-57120640D01*
X54202057Y-57085620D01*
X54202051Y-57085619D01*
X54197244Y-57084465D01*
X53960533Y-57065835D01*
X53723822Y-57084465D01*
X53719015Y-57085619D01*
X53719009Y-57085620D01*
X53573142Y-57120640D01*
X53492939Y-57139895D01*
X53488368Y-57141788D01*
X53488366Y-57141789D01*
X53278144Y-57228865D01*
X53278140Y-57228867D01*
X53273570Y-57230760D01*
X53269350Y-57233346D01*
X53075331Y-57352241D01*
X53075325Y-57352245D01*
X53071117Y-57354824D01*
X52890564Y-57509031D01*
X52736357Y-57689584D01*
X52733778Y-57693792D01*
X52733774Y-57693798D01*
X52614879Y-57887817D01*
X52612293Y-57892037D01*
X52521428Y-58111406D01*
X52520273Y-58116218D01*
X52470529Y-58323414D01*
X52435177Y-58384983D01*
X52372150Y-58417666D01*
X52348010Y-58420000D01*
X50926000Y-58420000D01*
X50857879Y-58399998D01*
X50811386Y-58346342D01*
X50800000Y-58294000D01*
X50800000Y-48161500D01*
X50820002Y-48093379D01*
X50873658Y-48046886D01*
X50926000Y-48035500D01*
X70359000Y-48035500D01*
X70427121Y-48055502D01*
G37*
%TD.AperFunction*%
%TD*%
M02*
