%FSLAX45Y45*%
G04 Gerber Fmt 4.5, Leading zero omitted, Abs format (unit mm)*
G04 Created by KiCad (PCBNEW (6.0.1)) date 2022-02-22 15:37:10*
%MOMM*%
%LPD*%
G01*
G04 APERTURE LIST*
%TA.AperFunction,Profile*%
%ADD10C,0.100000*%
%TD*%
%ADD11C,0.200000*%
%ADD12C,0.040000*%
%ADD13C,0.100000*%
G04 APERTURE END LIST*
D10*
X4851400Y-4279900D02*
X10071100Y-4279900D01*
X10071100Y-4279900D02*
X10071100Y-7531100D01*
X10071100Y-7531100D02*
X4851400Y-7531100D01*
X4851400Y-7531100D02*
X4851400Y-4279900D01*
D11*
D12*
X5339400Y-6977700D02*
X5379400Y-7017700D01*
X5379400Y-6977700D02*
X5339400Y-7017700D01*
X7003100Y-6378532D02*
X7043100Y-6418532D01*
X7043100Y-6378532D02*
X7003100Y-6418532D01*
X8628700Y-6342700D02*
X8668700Y-6382700D01*
X8668700Y-6342700D02*
X8628700Y-6382700D01*
X8628700Y-6558600D02*
X8668700Y-6598600D01*
X8668700Y-6558600D02*
X8628700Y-6598600D01*
X8755700Y-6647500D02*
X8795700Y-6687500D01*
X8795700Y-6647500D02*
X8755700Y-6687500D01*
X9301800Y-6914200D02*
X9341800Y-6954200D01*
X9341800Y-6914200D02*
X9301800Y-6954200D01*
D13*
X5446053Y-5857900D02*
G75*
G03*
X5446053Y-5857900I-50000J0D01*
G01*
X5513268Y-6057900D02*
G75*
G03*
X5513268Y-6057900I-50000J0D01*
G01*
X6013268Y-6057900D02*
G75*
G03*
X6013268Y-6057900I-50000J0D01*
G01*
X6080482Y-6257900D02*
G75*
G03*
X6080482Y-6257900I-50000J0D01*
G01*
X6390500Y-7158514D02*
G75*
G03*
X6390500Y-7158514I-50000J0D01*
G01*
X6590500Y-6591300D02*
G75*
G03*
X6590500Y-6591300I-50000J0D01*
G01*
X6590500Y-7091300D02*
G75*
G03*
X6590500Y-7091300I-50000J0D01*
G01*
X6790500Y-6524086D02*
G75*
G03*
X6790500Y-6524086I-50000J0D01*
G01*
X7571600Y-5259247D02*
G75*
G03*
X7571600Y-5259247I-50000J0D01*
G01*
X7771600Y-4692032D02*
G75*
G03*
X7771600Y-4692032I-50000J0D01*
G01*
X7771600Y-5192032D02*
G75*
G03*
X7771600Y-5192032I-50000J0D01*
G01*
X7971600Y-4624818D02*
G75*
G03*
X7971600Y-4624818I-50000J0D01*
G01*
X8583900Y-5143500D02*
G75*
G03*
X8583900Y-5143500I-50000J0D01*
G01*
X8837900Y-5143500D02*
G75*
G03*
X8837900Y-5143500I-50000J0D01*
G01*
X9296100Y-5143500D02*
G75*
G03*
X9296100Y-5143500I-50000J0D01*
G01*
X9550100Y-5143500D02*
G75*
G03*
X9550100Y-5143500I-50000J0D01*
G01*
D11*
X5104019Y-7846576D02*
X5104019Y-7646576D01*
X5151638Y-7646576D01*
X5180210Y-7656100D01*
X5199257Y-7675148D01*
X5208781Y-7694195D01*
X5218305Y-7732290D01*
X5218305Y-7760862D01*
X5208781Y-7798957D01*
X5199257Y-7818005D01*
X5180210Y-7837052D01*
X5151638Y-7846576D01*
X5104019Y-7846576D01*
X5304019Y-7846576D02*
X5304019Y-7713243D01*
X5304019Y-7751338D02*
X5313543Y-7732290D01*
X5323067Y-7722767D01*
X5342114Y-7713243D01*
X5361162Y-7713243D01*
X5427829Y-7846576D02*
X5427829Y-7713243D01*
X5427829Y-7646576D02*
X5418305Y-7656100D01*
X5427829Y-7665624D01*
X5437352Y-7656100D01*
X5427829Y-7646576D01*
X5427829Y-7665624D01*
X5551638Y-7846576D02*
X5532590Y-7837052D01*
X5523067Y-7818005D01*
X5523067Y-7646576D01*
X5656400Y-7846576D02*
X5637352Y-7837052D01*
X5627828Y-7818005D01*
X5627828Y-7646576D01*
X5884971Y-7846576D02*
X5884971Y-7646576D01*
X5951638Y-7789433D01*
X6018305Y-7646576D01*
X6018305Y-7846576D01*
X6199257Y-7846576D02*
X6199257Y-7741814D01*
X6189733Y-7722767D01*
X6170686Y-7713243D01*
X6132590Y-7713243D01*
X6113543Y-7722767D01*
X6199257Y-7837052D02*
X6180209Y-7846576D01*
X6132590Y-7846576D01*
X6113543Y-7837052D01*
X6104019Y-7818005D01*
X6104019Y-7798957D01*
X6113543Y-7779909D01*
X6132590Y-7770386D01*
X6180209Y-7770386D01*
X6199257Y-7760862D01*
X6294495Y-7713243D02*
X6294495Y-7913243D01*
X6294495Y-7722767D02*
X6313543Y-7713243D01*
X6351638Y-7713243D01*
X6370686Y-7722767D01*
X6380209Y-7732290D01*
X6389733Y-7751338D01*
X6389733Y-7808481D01*
X6380209Y-7827528D01*
X6370686Y-7837052D01*
X6351638Y-7846576D01*
X6313543Y-7846576D01*
X6294495Y-7837052D01*
X6475448Y-7827528D02*
X6484971Y-7837052D01*
X6475448Y-7846576D01*
X6465924Y-7837052D01*
X6475448Y-7827528D01*
X6475448Y-7846576D01*
X6475448Y-7722767D02*
X6484971Y-7732290D01*
X6475448Y-7741814D01*
X6465924Y-7732290D01*
X6475448Y-7722767D01*
X6475448Y-7741814D01*
D12*
X4806400Y-8156100D02*
X4846400Y-8196100D01*
X4846400Y-8156100D02*
X4806400Y-8196100D01*
D11*
X5142114Y-8066576D02*
X5161162Y-8066576D01*
X5180210Y-8076100D01*
X5189733Y-8085624D01*
X5199257Y-8104671D01*
X5208781Y-8142767D01*
X5208781Y-8190386D01*
X5199257Y-8228481D01*
X5189733Y-8247528D01*
X5180210Y-8257052D01*
X5161162Y-8266576D01*
X5142114Y-8266576D01*
X5123067Y-8257052D01*
X5113543Y-8247528D01*
X5104019Y-8228481D01*
X5094495Y-8190386D01*
X5094495Y-8142767D01*
X5104019Y-8104671D01*
X5113543Y-8085624D01*
X5123067Y-8076100D01*
X5142114Y-8066576D01*
X5294495Y-8247528D02*
X5304019Y-8257052D01*
X5294495Y-8266576D01*
X5284971Y-8257052D01*
X5294495Y-8247528D01*
X5294495Y-8266576D01*
X5475448Y-8133243D02*
X5475448Y-8266576D01*
X5427829Y-8057052D02*
X5380210Y-8199909D01*
X5504019Y-8199909D01*
X5618305Y-8066576D02*
X5637352Y-8066576D01*
X5656400Y-8076100D01*
X5665924Y-8085624D01*
X5675448Y-8104671D01*
X5684971Y-8142767D01*
X5684971Y-8190386D01*
X5675448Y-8228481D01*
X5665924Y-8247528D01*
X5656400Y-8257052D01*
X5637352Y-8266576D01*
X5618305Y-8266576D01*
X5599257Y-8257052D01*
X5589733Y-8247528D01*
X5580210Y-8228481D01*
X5570686Y-8190386D01*
X5570686Y-8142767D01*
X5580210Y-8104671D01*
X5589733Y-8085624D01*
X5599257Y-8076100D01*
X5618305Y-8066576D01*
X5808781Y-8066576D02*
X5827828Y-8066576D01*
X5846876Y-8076100D01*
X5856400Y-8085624D01*
X5865924Y-8104671D01*
X5875448Y-8142767D01*
X5875448Y-8190386D01*
X5865924Y-8228481D01*
X5856400Y-8247528D01*
X5846876Y-8257052D01*
X5827828Y-8266576D01*
X5808781Y-8266576D01*
X5789733Y-8257052D01*
X5780209Y-8247528D01*
X5770686Y-8228481D01*
X5761162Y-8190386D01*
X5761162Y-8142767D01*
X5770686Y-8104671D01*
X5780209Y-8085624D01*
X5789733Y-8076100D01*
X5808781Y-8066576D01*
X5961162Y-8266576D02*
X5961162Y-8133243D01*
X5961162Y-8152290D02*
X5970686Y-8142767D01*
X5989733Y-8133243D01*
X6018305Y-8133243D01*
X6037352Y-8142767D01*
X6046876Y-8161814D01*
X6046876Y-8266576D01*
X6046876Y-8161814D02*
X6056400Y-8142767D01*
X6075448Y-8133243D01*
X6104019Y-8133243D01*
X6123067Y-8142767D01*
X6132590Y-8161814D01*
X6132590Y-8266576D01*
X6227828Y-8266576D02*
X6227828Y-8133243D01*
X6227828Y-8152290D02*
X6237352Y-8142767D01*
X6256400Y-8133243D01*
X6284971Y-8133243D01*
X6304019Y-8142767D01*
X6313543Y-8161814D01*
X6313543Y-8266576D01*
X6313543Y-8161814D02*
X6323067Y-8142767D01*
X6342114Y-8133243D01*
X6370686Y-8133243D01*
X6389733Y-8142767D01*
X6399257Y-8161814D01*
X6399257Y-8266576D01*
X6789733Y-8057052D02*
X6618305Y-8314195D01*
X7046876Y-8066576D02*
X7065924Y-8066576D01*
X7084971Y-8076100D01*
X7094495Y-8085624D01*
X7104019Y-8104671D01*
X7113543Y-8142767D01*
X7113543Y-8190386D01*
X7104019Y-8228481D01*
X7094495Y-8247528D01*
X7084971Y-8257052D01*
X7065924Y-8266576D01*
X7046876Y-8266576D01*
X7027828Y-8257052D01*
X7018305Y-8247528D01*
X7008781Y-8228481D01*
X6999257Y-8190386D01*
X6999257Y-8142767D01*
X7008781Y-8104671D01*
X7018305Y-8085624D01*
X7027828Y-8076100D01*
X7046876Y-8066576D01*
X7199257Y-8247528D02*
X7208781Y-8257052D01*
X7199257Y-8266576D01*
X7189733Y-8257052D01*
X7199257Y-8247528D01*
X7199257Y-8266576D01*
X7332590Y-8066576D02*
X7351638Y-8066576D01*
X7370686Y-8076100D01*
X7380209Y-8085624D01*
X7389733Y-8104671D01*
X7399257Y-8142767D01*
X7399257Y-8190386D01*
X7389733Y-8228481D01*
X7380209Y-8247528D01*
X7370686Y-8257052D01*
X7351638Y-8266576D01*
X7332590Y-8266576D01*
X7313543Y-8257052D01*
X7304019Y-8247528D01*
X7294495Y-8228481D01*
X7284971Y-8190386D01*
X7284971Y-8142767D01*
X7294495Y-8104671D01*
X7304019Y-8085624D01*
X7313543Y-8076100D01*
X7332590Y-8066576D01*
X7589733Y-8266576D02*
X7475448Y-8266576D01*
X7532590Y-8266576D02*
X7532590Y-8066576D01*
X7513543Y-8095148D01*
X7494495Y-8114195D01*
X7475448Y-8123719D01*
X7770686Y-8066576D02*
X7675448Y-8066576D01*
X7665924Y-8161814D01*
X7675448Y-8152290D01*
X7694495Y-8142767D01*
X7742114Y-8142767D01*
X7761162Y-8152290D01*
X7770686Y-8161814D01*
X7780209Y-8180862D01*
X7780209Y-8228481D01*
X7770686Y-8247528D01*
X7761162Y-8257052D01*
X7742114Y-8266576D01*
X7694495Y-8266576D01*
X7675448Y-8257052D01*
X7665924Y-8247528D01*
X7846876Y-8066576D02*
X7980209Y-8066576D01*
X7894495Y-8266576D01*
X8046876Y-8066576D02*
X8046876Y-8104671D01*
X8123067Y-8066576D02*
X8123067Y-8104671D01*
X8418305Y-8342767D02*
X8408781Y-8333243D01*
X8389733Y-8304671D01*
X8380209Y-8285624D01*
X8370686Y-8257052D01*
X8361162Y-8209433D01*
X8361162Y-8171338D01*
X8370686Y-8123719D01*
X8380209Y-8095148D01*
X8389733Y-8076100D01*
X8408781Y-8047528D01*
X8418305Y-8038005D01*
X8580210Y-8066576D02*
X8542114Y-8066576D01*
X8523067Y-8076100D01*
X8513543Y-8085624D01*
X8494495Y-8114195D01*
X8484971Y-8152290D01*
X8484971Y-8228481D01*
X8494495Y-8247528D01*
X8504019Y-8257052D01*
X8523067Y-8266576D01*
X8561162Y-8266576D01*
X8580210Y-8257052D01*
X8589733Y-8247528D01*
X8599257Y-8228481D01*
X8599257Y-8180862D01*
X8589733Y-8161814D01*
X8580210Y-8152290D01*
X8561162Y-8142767D01*
X8523067Y-8142767D01*
X8504019Y-8152290D01*
X8494495Y-8161814D01*
X8484971Y-8180862D01*
X8837352Y-8266576D02*
X8837352Y-8066576D01*
X8923067Y-8266576D02*
X8923067Y-8161814D01*
X8913543Y-8142767D01*
X8894495Y-8133243D01*
X8865924Y-8133243D01*
X8846876Y-8142767D01*
X8837352Y-8152290D01*
X9046876Y-8266576D02*
X9027829Y-8257052D01*
X9018305Y-8247528D01*
X9008781Y-8228481D01*
X9008781Y-8171338D01*
X9018305Y-8152290D01*
X9027829Y-8142767D01*
X9046876Y-8133243D01*
X9075448Y-8133243D01*
X9094495Y-8142767D01*
X9104019Y-8152290D01*
X9113543Y-8171338D01*
X9113543Y-8228481D01*
X9104019Y-8247528D01*
X9094495Y-8257052D01*
X9075448Y-8266576D01*
X9046876Y-8266576D01*
X9227829Y-8266576D02*
X9208781Y-8257052D01*
X9199257Y-8238005D01*
X9199257Y-8066576D01*
X9380210Y-8257052D02*
X9361162Y-8266576D01*
X9323067Y-8266576D01*
X9304019Y-8257052D01*
X9294495Y-8238005D01*
X9294495Y-8161814D01*
X9304019Y-8142767D01*
X9323067Y-8133243D01*
X9361162Y-8133243D01*
X9380210Y-8142767D01*
X9389733Y-8161814D01*
X9389733Y-8180862D01*
X9294495Y-8199909D01*
X9465924Y-8257052D02*
X9484971Y-8266576D01*
X9523067Y-8266576D01*
X9542114Y-8257052D01*
X9551638Y-8238005D01*
X9551638Y-8228481D01*
X9542114Y-8209433D01*
X9523067Y-8199909D01*
X9494495Y-8199909D01*
X9475448Y-8190386D01*
X9465924Y-8171338D01*
X9465924Y-8161814D01*
X9475448Y-8142767D01*
X9494495Y-8133243D01*
X9523067Y-8133243D01*
X9542114Y-8142767D01*
X9618305Y-8342767D02*
X9627829Y-8333243D01*
X9646876Y-8304671D01*
X9656400Y-8285624D01*
X9665924Y-8257052D01*
X9675448Y-8209433D01*
X9675448Y-8171338D01*
X9665924Y-8123719D01*
X9656400Y-8095148D01*
X9646876Y-8076100D01*
X9627829Y-8047528D01*
X9618305Y-8038005D01*
D13*
X4846400Y-8440100D02*
G75*
G03*
X4846400Y-8440100I-50000J0D01*
G01*
D11*
X5208781Y-8530576D02*
X5094495Y-8530576D01*
X5151638Y-8530576D02*
X5151638Y-8330576D01*
X5132590Y-8359148D01*
X5113543Y-8378195D01*
X5094495Y-8387719D01*
X5294495Y-8511529D02*
X5304019Y-8521052D01*
X5294495Y-8530576D01*
X5284971Y-8521052D01*
X5294495Y-8511529D01*
X5294495Y-8530576D01*
X5427829Y-8330576D02*
X5446876Y-8330576D01*
X5465924Y-8340100D01*
X5475448Y-8349624D01*
X5484971Y-8368671D01*
X5494495Y-8406767D01*
X5494495Y-8454386D01*
X5484971Y-8492481D01*
X5475448Y-8511529D01*
X5465924Y-8521052D01*
X5446876Y-8530576D01*
X5427829Y-8530576D01*
X5408781Y-8521052D01*
X5399257Y-8511529D01*
X5389733Y-8492481D01*
X5380210Y-8454386D01*
X5380210Y-8406767D01*
X5389733Y-8368671D01*
X5399257Y-8349624D01*
X5408781Y-8340100D01*
X5427829Y-8330576D01*
X5618305Y-8330576D02*
X5637352Y-8330576D01*
X5656400Y-8340100D01*
X5665924Y-8349624D01*
X5675448Y-8368671D01*
X5684971Y-8406767D01*
X5684971Y-8454386D01*
X5675448Y-8492481D01*
X5665924Y-8511529D01*
X5656400Y-8521052D01*
X5637352Y-8530576D01*
X5618305Y-8530576D01*
X5599257Y-8521052D01*
X5589733Y-8511529D01*
X5580210Y-8492481D01*
X5570686Y-8454386D01*
X5570686Y-8406767D01*
X5580210Y-8368671D01*
X5589733Y-8349624D01*
X5599257Y-8340100D01*
X5618305Y-8330576D01*
X5808781Y-8330576D02*
X5827828Y-8330576D01*
X5846876Y-8340100D01*
X5856400Y-8349624D01*
X5865924Y-8368671D01*
X5875448Y-8406767D01*
X5875448Y-8454386D01*
X5865924Y-8492481D01*
X5856400Y-8511529D01*
X5846876Y-8521052D01*
X5827828Y-8530576D01*
X5808781Y-8530576D01*
X5789733Y-8521052D01*
X5780209Y-8511529D01*
X5770686Y-8492481D01*
X5761162Y-8454386D01*
X5761162Y-8406767D01*
X5770686Y-8368671D01*
X5780209Y-8349624D01*
X5789733Y-8340100D01*
X5808781Y-8330576D01*
X5961162Y-8530576D02*
X5961162Y-8397243D01*
X5961162Y-8416290D02*
X5970686Y-8406767D01*
X5989733Y-8397243D01*
X6018305Y-8397243D01*
X6037352Y-8406767D01*
X6046876Y-8425814D01*
X6046876Y-8530576D01*
X6046876Y-8425814D02*
X6056400Y-8406767D01*
X6075448Y-8397243D01*
X6104019Y-8397243D01*
X6123067Y-8406767D01*
X6132590Y-8425814D01*
X6132590Y-8530576D01*
X6227828Y-8530576D02*
X6227828Y-8397243D01*
X6227828Y-8416290D02*
X6237352Y-8406767D01*
X6256400Y-8397243D01*
X6284971Y-8397243D01*
X6304019Y-8406767D01*
X6313543Y-8425814D01*
X6313543Y-8530576D01*
X6313543Y-8425814D02*
X6323067Y-8406767D01*
X6342114Y-8397243D01*
X6370686Y-8397243D01*
X6389733Y-8406767D01*
X6399257Y-8425814D01*
X6399257Y-8530576D01*
X6789733Y-8321052D02*
X6618305Y-8578195D01*
X7046876Y-8330576D02*
X7065924Y-8330576D01*
X7084971Y-8340100D01*
X7094495Y-8349624D01*
X7104019Y-8368671D01*
X7113543Y-8406767D01*
X7113543Y-8454386D01*
X7104019Y-8492481D01*
X7094495Y-8511529D01*
X7084971Y-8521052D01*
X7065924Y-8530576D01*
X7046876Y-8530576D01*
X7027828Y-8521052D01*
X7018305Y-8511529D01*
X7008781Y-8492481D01*
X6999257Y-8454386D01*
X6999257Y-8406767D01*
X7008781Y-8368671D01*
X7018305Y-8349624D01*
X7027828Y-8340100D01*
X7046876Y-8330576D01*
X7199257Y-8511529D02*
X7208781Y-8521052D01*
X7199257Y-8530576D01*
X7189733Y-8521052D01*
X7199257Y-8511529D01*
X7199257Y-8530576D01*
X7332590Y-8330576D02*
X7351638Y-8330576D01*
X7370686Y-8340100D01*
X7380209Y-8349624D01*
X7389733Y-8368671D01*
X7399257Y-8406767D01*
X7399257Y-8454386D01*
X7389733Y-8492481D01*
X7380209Y-8511529D01*
X7370686Y-8521052D01*
X7351638Y-8530576D01*
X7332590Y-8530576D01*
X7313543Y-8521052D01*
X7304019Y-8511529D01*
X7294495Y-8492481D01*
X7284971Y-8454386D01*
X7284971Y-8406767D01*
X7294495Y-8368671D01*
X7304019Y-8349624D01*
X7313543Y-8340100D01*
X7332590Y-8330576D01*
X7465924Y-8330576D02*
X7589733Y-8330576D01*
X7523067Y-8406767D01*
X7551638Y-8406767D01*
X7570686Y-8416290D01*
X7580209Y-8425814D01*
X7589733Y-8444862D01*
X7589733Y-8492481D01*
X7580209Y-8511529D01*
X7570686Y-8521052D01*
X7551638Y-8530576D01*
X7494495Y-8530576D01*
X7475448Y-8521052D01*
X7465924Y-8511529D01*
X7684971Y-8530576D02*
X7723067Y-8530576D01*
X7742114Y-8521052D01*
X7751638Y-8511529D01*
X7770686Y-8482957D01*
X7780209Y-8444862D01*
X7780209Y-8368671D01*
X7770686Y-8349624D01*
X7761162Y-8340100D01*
X7742114Y-8330576D01*
X7704019Y-8330576D01*
X7684971Y-8340100D01*
X7675448Y-8349624D01*
X7665924Y-8368671D01*
X7665924Y-8416290D01*
X7675448Y-8435338D01*
X7684971Y-8444862D01*
X7704019Y-8454386D01*
X7742114Y-8454386D01*
X7761162Y-8444862D01*
X7770686Y-8435338D01*
X7780209Y-8416290D01*
X7951638Y-8397243D02*
X7951638Y-8530576D01*
X7904019Y-8321052D02*
X7856400Y-8463910D01*
X7980209Y-8463910D01*
X8046876Y-8330576D02*
X8046876Y-8368671D01*
X8123067Y-8330576D02*
X8123067Y-8368671D01*
X8418305Y-8606767D02*
X8408781Y-8597243D01*
X8389733Y-8568671D01*
X8380209Y-8549624D01*
X8370686Y-8521052D01*
X8361162Y-8473433D01*
X8361162Y-8435338D01*
X8370686Y-8387719D01*
X8380209Y-8359148D01*
X8389733Y-8340100D01*
X8408781Y-8311528D01*
X8418305Y-8302005D01*
X8599257Y-8530576D02*
X8484971Y-8530576D01*
X8542114Y-8530576D02*
X8542114Y-8330576D01*
X8523067Y-8359148D01*
X8504019Y-8378195D01*
X8484971Y-8387719D01*
X8770686Y-8330576D02*
X8732590Y-8330576D01*
X8713543Y-8340100D01*
X8704019Y-8349624D01*
X8684971Y-8378195D01*
X8675448Y-8416290D01*
X8675448Y-8492481D01*
X8684971Y-8511529D01*
X8694495Y-8521052D01*
X8713543Y-8530576D01*
X8751638Y-8530576D01*
X8770686Y-8521052D01*
X8780210Y-8511529D01*
X8789733Y-8492481D01*
X8789733Y-8444862D01*
X8780210Y-8425814D01*
X8770686Y-8416290D01*
X8751638Y-8406767D01*
X8713543Y-8406767D01*
X8694495Y-8416290D01*
X8684971Y-8425814D01*
X8675448Y-8444862D01*
X9027829Y-8530576D02*
X9027829Y-8330576D01*
X9113543Y-8530576D02*
X9113543Y-8425814D01*
X9104019Y-8406767D01*
X9084971Y-8397243D01*
X9056400Y-8397243D01*
X9037352Y-8406767D01*
X9027829Y-8416290D01*
X9237352Y-8530576D02*
X9218305Y-8521052D01*
X9208781Y-8511529D01*
X9199257Y-8492481D01*
X9199257Y-8435338D01*
X9208781Y-8416290D01*
X9218305Y-8406767D01*
X9237352Y-8397243D01*
X9265924Y-8397243D01*
X9284971Y-8406767D01*
X9294495Y-8416290D01*
X9304019Y-8435338D01*
X9304019Y-8492481D01*
X9294495Y-8511529D01*
X9284971Y-8521052D01*
X9265924Y-8530576D01*
X9237352Y-8530576D01*
X9418305Y-8530576D02*
X9399257Y-8521052D01*
X9389733Y-8502005D01*
X9389733Y-8330576D01*
X9570686Y-8521052D02*
X9551638Y-8530576D01*
X9513543Y-8530576D01*
X9494495Y-8521052D01*
X9484971Y-8502005D01*
X9484971Y-8425814D01*
X9494495Y-8406767D01*
X9513543Y-8397243D01*
X9551638Y-8397243D01*
X9570686Y-8406767D01*
X9580210Y-8425814D01*
X9580210Y-8444862D01*
X9484971Y-8463910D01*
X9656400Y-8521052D02*
X9675448Y-8530576D01*
X9713543Y-8530576D01*
X9732590Y-8521052D01*
X9742114Y-8502005D01*
X9742114Y-8492481D01*
X9732590Y-8473433D01*
X9713543Y-8463910D01*
X9684971Y-8463910D01*
X9665924Y-8454386D01*
X9656400Y-8435338D01*
X9656400Y-8425814D01*
X9665924Y-8406767D01*
X9684971Y-8397243D01*
X9713543Y-8397243D01*
X9732590Y-8406767D01*
X9808781Y-8606767D02*
X9818305Y-8597243D01*
X9837352Y-8568671D01*
X9846876Y-8549624D01*
X9856400Y-8521052D01*
X9865924Y-8473433D01*
X9865924Y-8435338D01*
X9856400Y-8387719D01*
X9846876Y-8359148D01*
X9837352Y-8340100D01*
X9818305Y-8311528D01*
X9808781Y-8302005D01*
M02*
