<?xml version="1.0" standalone="no"?>
 <!DOCTYPE svg PUBLIC "-//W3C//DTD SVG 1.1//EN" 
 "http://www.w3.org/Graphics/SVG/1.1/DTD/svg11.dtd"> 
<svg
  xmlns:svg="http://www.w3.org/2000/svg"
  xmlns="http://www.w3.org/2000/svg"
  xmlns:xlink="http://www.w3.org/1999/xlink"
  version="1.1"
  width="29.700220cm" height="21.000720cm" viewBox="0 0 116930 82680">
<title>SVG Picture created as Phantom Power Supply.svg date 2022/02/25 11:14:01 </title>
  <desc>Picture generated by Eeschema-SVG </desc>
<g style="fill:#000000; fill-opacity:1.000000;stroke:#000000; stroke-opacity:1.000000;
stroke-linecap:round; stroke-linejoin:round;"
 transform="translate(0 0) scale(1 1)">
</g>
<g style="fill:#F5F4EF; fill-opacity:0.0; 
stroke:#F5F4EF; stroke-width:0.000000; stroke-opacity:1; 
stroke-linecap:round; stroke-linejoin:round;">
</g>
<g style="fill:#F5F4EF; fill-opacity:1.0; 
stroke:#F5F4EF; stroke-width:0.039370; stroke-opacity:1; 
stroke-linecap:round; stroke-linejoin:round;">
<rect x="0.000000" y="0.000000" width="116930.000000" height="82680.000000" rx="0.000000" />
</g>
<g style="fill:#F5F4EF; fill-opacity:1.0; 
stroke:#F5F4EF; stroke-width:60.000000; stroke-opacity:1; 
stroke-linecap:round; stroke-linejoin:round;">
<g >
</g>
<g style="fill:#840000; fill-opacity:1.0; 
stroke:#840000; stroke-width:60.000000; stroke-opacity:1; 
stroke-linecap:round; stroke-linejoin:round;">
</g>
<g style="fill:#840000; fill-opacity:0.0; 
stroke:#840000; stroke-width:100.000000; stroke-opacity:1; 
stroke-linecap:round; stroke-linejoin:round;">
<rect x="74500.000000" y="19100.000000" width="2000.000000" height="800.000000" rx="0.000000" />
</g>
<g style="fill:#840000; fill-opacity:0.0; 
stroke:#840000; stroke-width:60.000000; stroke-opacity:1; 
stroke-linecap:round; stroke-linejoin:round;">
<path d="M74500 19500
L74000 19500
" />
<path d="M76500 19500
L77000 19500
" />
</g>
<g style="fill:#006464; fill-opacity:0.0; 
stroke:#006464; stroke-width:60.000000; stroke-opacity:1; 
stroke-linecap:round; stroke-linejoin:round;">
<text x="75499.960630" y="17249.960630"
textLength="1036.181102" font-size="666.653543" lengthAdjust="spacingAndGlyphs"
text-anchor="middle" opacity="0">R4</text>
<g class="stroked-text"><desc>R4</desc>
<path d="M75416 17226
L75249 16988
" />
<path d="M75130 17226
L75130 16726
L75321 16726
L75368 16749
L75392 16773
L75416 16821
L75416 16892
L75392 16940
L75368 16964
L75321 16988
L75130 16988
" />
<path d="M75845 16892
L75845 17226
" />
<path d="M75726 16702
L75607 17059
L75916 17059
" />
</g><text x="75500.000000" y="18249.960630"
textLength="940.944882" font-size="666.653543" lengthAdjust="spacingAndGlyphs"
text-anchor="middle" opacity="0">1k</text>
<g class="stroked-text"><desc>1k</desc>
<path d="M75440 18226
L75154 18226
" />
<path d="M75297 18226
L75297 17726
L75250 17797
L75202 17845
L75154 17868
" />
<path d="M75654 18226
L75654 17726
" />
<path d="M75702 18035
L75845 18226
" />
<path d="M75845 17892
L75654 18083
" />
</g></g>
</g>
<g style="fill:#006464; fill-opacity:0.0; 
stroke:#006464; stroke-width:60.000000; stroke-opacity:1; 
stroke-linecap:round; stroke-linejoin:round;">
<g >
</g>
<g style="fill:#840000; fill-opacity:0.0; 
stroke:#840000; stroke-width:60.000000; stroke-opacity:1; 
stroke-linecap:round; stroke-linejoin:round;">
<path style="fill:#840000; fill-opacity:0.0; 
stroke:#840000; stroke-width:60.000000; stroke-opacity:1; 
stroke-linecap:round; stroke-linejoin:round;fill:none"
d="M 61500.000000,27500.000000
61500.000000,28000.000000
62000.000000,28000.000000
61500.000000,28500.000000
61000.000000,28000.000000
61500.000000,28000.000000
" /> 
</g>
<g style="fill:#006464; fill-opacity:0.0; 
stroke:#006464; stroke-width:60.000000; stroke-opacity:1; 
stroke-linecap:round; stroke-linejoin:round;">
<text x="61500.000000" y="29750.000000"
textLength="1583.818898" font-size="666.653543" lengthAdjust="spacingAndGlyphs"
text-anchor="middle" opacity="0">GND</text>
<g class="stroked-text"><desc>GND</desc>
<path d="M61119 29250
L61071 29226
L61000 29226
L60928 29250
L60880 29297
L60857 29345
L60833 29440
L60833 29511
L60857 29607
L60880 29654
L60928 29702
L61000 29726
L61047 29726
L61119 29702
L61142 29678
L61142 29511
L61047 29511
" />
<path d="M61357 29726
L61357 29226
L61642 29726
L61642 29226
" />
<path d="M61880 29726
L61880 29226
L62000 29226
L62071 29250
L62119 29297
L62142 29345
L62166 29440
L62166 29511
L62142 29607
L62119 29654
L62071 29702
L62000 29726
L61880 29726
" />
</g></g>
</g>
<g style="fill:#006464; fill-opacity:0.0; 
stroke:#006464; stroke-width:60.000000; stroke-opacity:1; 
stroke-linecap:round; stroke-linejoin:round;">
<g >
</g>
<g style="fill:#840000; fill-opacity:0.0; 
stroke:#840000; stroke-width:60.000000; stroke-opacity:1; 
stroke-linecap:round; stroke-linejoin:round;">
</g>
<g style="fill:#840000; fill-opacity:0.0; 
stroke:#840000; stroke-width:200.000000; stroke-opacity:1; 
stroke-linecap:round; stroke-linejoin:round;">
<path style="fill:#840000; fill-opacity:0.0; 
stroke:#840000; stroke-width:200.000000; stroke-opacity:1; 
stroke-linecap:round; stroke-linejoin:round;fill:none"
d="M 49800.000000,23200.000000
48200.000000,23200.000000
" /> 
<path style="fill:#840000; fill-opacity:0.0; 
stroke:#840000; stroke-width:200.000000; stroke-opacity:1; 
stroke-linecap:round; stroke-linejoin:round;fill:none"
d="M 49800.000000,23800.000000
48200.000000,23800.000000
" /> 
</g>
<g style="fill:#840000; fill-opacity:0.0; 
stroke:#840000; stroke-width:60.000000; stroke-opacity:1; 
stroke-linecap:round; stroke-linejoin:round;">
<path d="M49000 23900
L49000 25000
" />
<path d="M49000 23100
L49000 22000
" />
</g>
<g style="fill:#006464; fill-opacity:0.0; 
stroke:#006464; stroke-width:60.000000; stroke-opacity:1; 
stroke-linecap:round; stroke-linejoin:round;">
<text x="51019.330709" y="23249.921260"
textLength="1036.181102" font-size="666.653543" lengthAdjust="spacingAndGlyphs"
text-anchor="middle" opacity="0">C3</text>
<g class="stroked-text"><desc>C3</desc>
<path d="M50935 23178
L50912 23202
L50840 23226
L50793 23226
L50721 23202
L50674 23154
L50650 23107
L50626 23011
L50626 22940
L50650 22845
L50674 22797
L50721 22749
L50793 22726
L50840 22726
L50912 22749
L50935 22773
" />
<path d="M51102 22726
L51412 22726
L51245 22916
L51316 22916
L51364 22940
L51388 22964
L51412 23011
L51412 23130
L51388 23178
L51364 23202
L51316 23226
L51174 23226
L51126 23202
L51102 23178
" />
</g><text x="51352.677165" y="24249.921260"
textLength="1702.874016" font-size="666.653543" lengthAdjust="spacingAndGlyphs"
text-anchor="middle" opacity="0">4.7u</text>
<g class="stroked-text"><desc>4.7u</desc>
<path d="M50864 23892
L50864 24226
" />
<path d="M50745 23702
L50626 24059
L50935 24059
" />
<path d="M51126 24178
L51150 24202
L51126 24226
L51102 24202
L51126 24178
L51126 24226
" />
<path d="M51316 23726
L51650 23726
L51435 24226
" />
<path d="M52055 23892
L52055 24226
" />
<path d="M51840 23892
L51840 24154
L51864 24202
L51912 24226
L51983 24226
L52031 24202
L52055 24178
" />
</g></g>
</g>
<g style="fill:#006464; fill-opacity:0.0; 
stroke:#006464; stroke-width:60.000000; stroke-opacity:1; 
stroke-linecap:round; stroke-linejoin:round;">
<g >
</g>
<g style="fill:#840000; fill-opacity:0.0; 
stroke:#840000; stroke-width:60.000000; stroke-opacity:1; 
stroke-linecap:round; stroke-linejoin:round;">
<path style="fill:#840000; fill-opacity:0.0; 
stroke:#840000; stroke-width:60.000000; stroke-opacity:1; 
stroke-linecap:round; stroke-linejoin:round;fill:none"
d="M 49000.000000,26000.000000
49000.000000,26500.000000
49500.000000,26500.000000
49000.000000,27000.000000
48500.000000,26500.000000
49000.000000,26500.000000
" /> 
</g>
<g style="fill:#006464; fill-opacity:0.0; 
stroke:#006464; stroke-width:60.000000; stroke-opacity:1; 
stroke-linecap:round; stroke-linejoin:round;">
<text x="49000.000000" y="28250.000000"
textLength="1583.818898" font-size="666.653543" lengthAdjust="spacingAndGlyphs"
text-anchor="middle" opacity="0">GND</text>
<g class="stroked-text"><desc>GND</desc>
<path d="M48619 27750
L48571 27726
L48500 27726
L48428 27750
L48380 27797
L48357 27845
L48333 27940
L48333 28011
L48357 28107
L48380 28154
L48428 28202
L48500 28226
L48547 28226
L48619 28202
L48642 28178
L48642 28011
L48547 28011
" />
<path d="M48857 28226
L48857 27726
L49142 28226
L49142 27726
" />
<path d="M49380 28226
L49380 27726
L49500 27726
L49571 27750
L49619 27797
L49642 27845
L49666 27940
L49666 28011
L49642 28107
L49619 28154
L49571 28202
L49500 28226
L49380 28226
" />
</g></g>
</g>
<g style="fill:#006464; fill-opacity:0.0; 
stroke:#006464; stroke-width:60.000000; stroke-opacity:1; 
stroke-linecap:round; stroke-linejoin:round;">
<g >
</g>
<g style="fill:#840000; fill-opacity:0.0; 
stroke:#840000; stroke-width:60.000000; stroke-opacity:1; 
stroke-linecap:round; stroke-linejoin:round;">
</g>
<g style="fill:#840000; fill-opacity:0.0; 
stroke:#840000; stroke-width:100.000000; stroke-opacity:1; 
stroke-linecap:round; stroke-linejoin:round;">
<rect x="61100.000000" y="23500.000000" width="800.000000" height="2000.000000" rx="0.000000" />
</g>
<g style="fill:#840000; fill-opacity:0.0; 
stroke:#840000; stroke-width:60.000000; stroke-opacity:1; 
stroke-linecap:round; stroke-linejoin:round;">
<path d="M61500 23500
L61500 23000
" />
<path d="M61500 25500
L61500 26000
" />
</g>
<g style="fill:#006464; fill-opacity:0.0; 
stroke:#006464; stroke-width:60.000000; stroke-opacity:1; 
stroke-linecap:round; stroke-linejoin:round;">
<text x="63019.330709" y="24249.960630"
textLength="1036.181102" font-size="666.653543" lengthAdjust="spacingAndGlyphs"
text-anchor="middle" opacity="0">R2</text>
<g class="stroked-text"><desc>R2</desc>
<path d="M62935 24226
L62769 23988
" />
<path d="M62650 24226
L62650 23726
L62840 23726
L62888 23749
L62912 23773
L62935 23821
L62935 23892
L62912 23940
L62888 23964
L62840 23988
L62650 23988
" />
<path d="M63126 23773
L63150 23749
L63197 23726
L63316 23726
L63364 23749
L63388 23773
L63412 23821
L63412 23868
L63388 23940
L63102 24226
L63412 24226
" />
</g><text x="62781.259843" y="25249.960630"
textLength="560.000000" font-size="666.653543" lengthAdjust="spacingAndGlyphs"
text-anchor="middle" opacity="0">R</text>
<g class="stroked-text"><desc>R</desc>
<path d="M62935 25226
L62769 24988
" />
<path d="M62650 25226
L62650 24726
L62840 24726
L62888 24749
L62912 24773
L62935 24821
L62935 24892
L62912 24940
L62888 24964
L62840 24988
L62650 24988
" />
</g></g>
</g>
<g style="fill:#006464; fill-opacity:0.0; 
stroke:#006464; stroke-width:60.000000; stroke-opacity:1; 
stroke-linecap:round; stroke-linejoin:round;">
<g >
</g>
<g style="fill:#840000; fill-opacity:0.0; 
stroke:#840000; stroke-width:60.000000; stroke-opacity:1; 
stroke-linecap:round; stroke-linejoin:round;">
</g>
<g style="fill:#840000; fill-opacity:0.0; 
stroke:#840000; stroke-width:200.000000; stroke-opacity:1; 
stroke-linecap:round; stroke-linejoin:round;">
<path style="fill:#840000; fill-opacity:0.0; 
stroke:#840000; stroke-width:200.000000; stroke-opacity:1; 
stroke-linecap:round; stroke-linejoin:round;fill:none"
d="M 44800.000000,16300.000000
44800.000000,14700.000000
" /> 
<path style="fill:#840000; fill-opacity:0.0; 
stroke:#840000; stroke-width:200.000000; stroke-opacity:1; 
stroke-linecap:round; stroke-linejoin:round;fill:none"
d="M 44200.000000,16300.000000
44200.000000,14700.000000
" /> 
</g>
<g style="fill:#840000; fill-opacity:0.0; 
stroke:#840000; stroke-width:60.000000; stroke-opacity:1; 
stroke-linecap:round; stroke-linejoin:round;">
<path d="M44100 15500
L43000 15500
" />
<path d="M44900 15500
L46000 15500
" />
</g>
<g style="fill:#006464; fill-opacity:0.0; 
stroke:#006464; stroke-width:60.000000; stroke-opacity:1; 
stroke-linecap:round; stroke-linejoin:round;">
<text x="44499.960630" y="12749.960630"
textLength="1036.181102" font-size="666.653543" lengthAdjust="spacingAndGlyphs"
text-anchor="middle" opacity="0">C2</text>
<g class="stroked-text"><desc>C2</desc>
<path d="M44416 12678
L44392 12702
L44321 12726
L44273 12726
L44202 12702
L44154 12654
L44130 12607
L44107 12511
L44107 12440
L44130 12345
L44154 12297
L44202 12249
L44273 12226
L44321 12226
L44392 12249
L44416 12273
" />
<path d="M44607 12273
L44630 12249
L44678 12226
L44797 12226
L44845 12249
L44868 12273
L44892 12321
L44892 12368
L44868 12440
L44583 12726
L44892 12726
" />
</g><text x="44500.000000" y="13749.960630"
textLength="988.582677" font-size="666.653543" lengthAdjust="spacingAndGlyphs"
text-anchor="middle" opacity="0">1u</text>
<g class="stroked-text"><desc>1u</desc>
<path d="M44416 13726
L44130 13726
" />
<path d="M44273 13726
L44273 13226
L44226 13297
L44178 13345
L44130 13368
" />
<path d="M44845 13392
L44845 13726
" />
<path d="M44630 13392
L44630 13654
L44654 13702
L44702 13726
L44773 13726
L44821 13702
L44845 13678
" />
</g></g>
</g>
<g style="fill:#006464; fill-opacity:0.0; 
stroke:#006464; stroke-width:60.000000; stroke-opacity:1; 
stroke-linecap:round; stroke-linejoin:round;">
<g >
</g>
<g style="fill:#840000; fill-opacity:0.0; 
stroke:#840000; stroke-width:60.000000; stroke-opacity:1; 
stroke-linecap:round; stroke-linejoin:round;">
</g>
<g style="fill:#840000; fill-opacity:0.0; 
stroke:#840000; stroke-width:100.000000; stroke-opacity:1; 
stroke-linecap:round; stroke-linejoin:round;">
<path style="fill:#840000; fill-opacity:0.0; 
stroke:#840000; stroke-width:100.000000; stroke-opacity:1; 
stroke-linecap:round; stroke-linejoin:round;fill:none"
d="M 79000.000000,9500.000000
79000.000000,10500.000000
" /> 
</g>
<g style="fill:#840000; fill-opacity:0.0; 
stroke:#840000; stroke-width:60.000000; stroke-opacity:1; 
stroke-linecap:round; stroke-linejoin:round;">
<path style="fill:#840000; fill-opacity:0.0; 
stroke:#840000; stroke-width:60.000000; stroke-opacity:1; 
stroke-linecap:round; stroke-linejoin:round;fill:none"
d="M 80000.000000,10000.000000
79000.000000,10000.000000
" /> 
</g>
<g style="fill:#840000; fill-opacity:0.0; 
stroke:#840000; stroke-width:100.000000; stroke-opacity:1; 
stroke-linecap:round; stroke-linejoin:round;">
<path style="fill:#840000; fill-opacity:0.0; 
stroke:#840000; stroke-width:100.000000; stroke-opacity:1; 
stroke-linecap:round; stroke-linejoin:round;fill:none"
d="M 80000.000000,9500.000000
80000.000000,10500.000000
79000.000000,10000.000000
Z" /> 
</g>
<g style="fill:#840000; fill-opacity:0.0; 
stroke:#840000; stroke-width:60.000000; stroke-opacity:1; 
stroke-linecap:round; stroke-linejoin:round;">
<path d="M79000 10000
L78000 10000
" />
<path d="M80000 10000
L81000 10000
" />
</g>
<g style="fill:#006464; fill-opacity:0.0; 
stroke:#006464; stroke-width:60.000000; stroke-opacity:1; 
stroke-linecap:round; stroke-linejoin:round;">
<text x="79500.000000" y="8750.000000"
textLength="1036.181102" font-size="666.653543" lengthAdjust="spacingAndGlyphs"
text-anchor="middle" opacity="0">D4</text>
<g class="stroked-text"><desc>D4</desc>
<path d="M79130 8726
L79130 8226
L79250 8226
L79321 8250
L79369 8297
L79392 8345
L79416 8440
L79416 8511
L79392 8607
L79369 8654
L79321 8702
L79250 8726
L79130 8726
" />
<path d="M79845 8392
L79845 8726
" />
<path d="M79726 8202
L79607 8559
L79916 8559
" />
</g></g>
</g>
<g style="fill:#006464; fill-opacity:0.0; 
stroke:#006464; stroke-width:60.000000; stroke-opacity:1; 
stroke-linecap:round; stroke-linejoin:round;">
<g >
</g>
<g style="fill:#840000; fill-opacity:0.0; 
stroke:#840000; stroke-width:60.000000; stroke-opacity:1; 
stroke-linecap:round; stroke-linejoin:round;">
</g>
<g style="fill:#840000; fill-opacity:0.0; 
stroke:#840000; stroke-width:100.000000; stroke-opacity:1; 
stroke-linecap:round; stroke-linejoin:round;">
<rect x="66500.000000" y="19100.000000" width="2000.000000" height="800.000000" rx="0.000000" />
</g>
<g style="fill:#840000; fill-opacity:0.0; 
stroke:#840000; stroke-width:60.000000; stroke-opacity:1; 
stroke-linecap:round; stroke-linejoin:round;">
<path d="M66500 19500
L66000 19500
" />
<path d="M68500 19500
L69000 19500
" />
</g>
<g style="fill:#006464; fill-opacity:0.0; 
stroke:#006464; stroke-width:60.000000; stroke-opacity:1; 
stroke-linecap:round; stroke-linejoin:round;">
<text x="67499.960630" y="17249.960630"
textLength="1036.181102" font-size="666.653543" lengthAdjust="spacingAndGlyphs"
text-anchor="middle" opacity="0">R3</text>
<g class="stroked-text"><desc>R3</desc>
<path d="M67416 17226
L67249 16988
" />
<path d="M67130 17226
L67130 16726
L67321 16726
L67368 16749
L67392 16773
L67416 16821
L67416 16892
L67392 16940
L67368 16964
L67321 16988
L67130 16988
" />
<path d="M67583 16726
L67892 16726
L67726 16916
L67797 16916
L67845 16940
L67868 16964
L67892 17011
L67892 17130
L67868 17178
L67845 17202
L67797 17226
L67654 17226
L67607 17202
L67583 17178
" />
</g><text x="67500.000000" y="18249.960630"
textLength="940.944882" font-size="666.653543" lengthAdjust="spacingAndGlyphs"
text-anchor="middle" opacity="0">1k</text>
<g class="stroked-text"><desc>1k</desc>
<path d="M67440 18226
L67154 18226
" />
<path d="M67297 18226
L67297 17726
L67250 17797
L67202 17845
L67154 17868
" />
<path d="M67654 18226
L67654 17726
" />
<path d="M67702 18035
L67845 18226
" />
<path d="M67845 17892
L67654 18083
" />
</g></g>
</g>
<g style="fill:#006464; fill-opacity:0.0; 
stroke:#006464; stroke-width:60.000000; stroke-opacity:1; 
stroke-linecap:round; stroke-linejoin:round;">
<g >
</g>
<g style="fill:#840000; fill-opacity:0.0; 
stroke:#840000; stroke-width:60.000000; stroke-opacity:1; 
stroke-linecap:round; stroke-linejoin:round;">
<path style="fill:#840000; fill-opacity:0.0; 
stroke:#840000; stroke-width:60.000000; stroke-opacity:1; 
stroke-linecap:round; stroke-linejoin:round;fill:none"
d="M 44500.000000,21000.000000
45500.000000,21000.000000
" /> 
</g>
<g style="fill:#840000; fill-opacity:0.0; 
stroke:#840000; stroke-width:100.000000; stroke-opacity:1; 
stroke-linecap:round; stroke-linejoin:round;">
<path style="fill:#840000; fill-opacity:0.0; 
stroke:#840000; stroke-width:100.000000; stroke-opacity:1; 
stroke-linecap:round; stroke-linejoin:round;fill:none"
d="M 44500.000000,21500.000000
44500.000000,20500.000000
45500.000000,21000.000000
Z" /> 
<path style="fill:#840000; fill-opacity:0.0; 
stroke:#840000; stroke-width:100.000000; stroke-opacity:1; 
stroke-linecap:round; stroke-linejoin:round;fill:none"
d="M 45750.000000,21250.000000
45750.000000,21500.000000
45500.000000,21500.000000
45500.000000,20500.000000
45250.000000,20500.000000
45250.000000,20750.000000
" /> 
</g>
<g style="fill:#840000; fill-opacity:0.0; 
stroke:#840000; stroke-width:60.000000; stroke-opacity:1; 
stroke-linecap:round; stroke-linejoin:round;">
<path d="M45500 21000
L46500 21000
" />
<path d="M44500 21000
L43500 21000
" />
</g>
<g style="fill:#006464; fill-opacity:0.0; 
stroke:#006464; stroke-width:60.000000; stroke-opacity:1; 
stroke-linecap:round; stroke-linejoin:round;">
<text x="45124.960630" y="19749.960630"
textLength="1036.181102" font-size="666.653543" lengthAdjust="spacingAndGlyphs"
text-anchor="middle" opacity="0">D1</text>
<g class="stroked-text"><desc>D1</desc>
<path d="M44755 19726
L44755 19226
L44874 19226
L44946 19249
L44993 19297
L45017 19345
L45041 19440
L45041 19511
L45017 19607
L44993 19654
L44946 19702
L44874 19726
L44755 19726
" />
<path d="M45517 19726
L45232 19726
" />
<path d="M45374 19726
L45374 19226
L45327 19297
L45279 19345
L45232 19368
" />
</g></g>
</g>
<g style="fill:#006464; fill-opacity:0.0; 
stroke:#006464; stroke-width:60.000000; stroke-opacity:1; 
stroke-linecap:round; stroke-linejoin:round;">
<g >
</g>
<g style="fill:#840000; fill-opacity:0.0; 
stroke:#840000; stroke-width:60.000000; stroke-opacity:1; 
stroke-linecap:round; stroke-linejoin:round;">
<path style="fill:#840000; fill-opacity:0.0; 
stroke:#840000; stroke-width:60.000000; stroke-opacity:1; 
stroke-linecap:round; stroke-linejoin:round;fill:none"
d="M 52500.000000,15500.000000
53500.000000,15500.000000
" /> 
</g>
<g style="fill:#840000; fill-opacity:0.0; 
stroke:#840000; stroke-width:100.000000; stroke-opacity:1; 
stroke-linecap:round; stroke-linejoin:round;">
<path style="fill:#840000; fill-opacity:0.0; 
stroke:#840000; stroke-width:100.000000; stroke-opacity:1; 
stroke-linecap:round; stroke-linejoin:round;fill:none"
d="M 52500.000000,16000.000000
52500.000000,15000.000000
53500.000000,15500.000000
Z" /> 
<path style="fill:#840000; fill-opacity:0.0; 
stroke:#840000; stroke-width:100.000000; stroke-opacity:1; 
stroke-linecap:round; stroke-linejoin:round;fill:none"
d="M 53750.000000,15750.000000
53750.000000,16000.000000
53500.000000,16000.000000
53500.000000,15000.000000
53250.000000,15000.000000
53250.000000,15250.000000
" /> 
</g>
<g style="fill:#840000; fill-opacity:0.0; 
stroke:#840000; stroke-width:60.000000; stroke-opacity:1; 
stroke-linecap:round; stroke-linejoin:round;">
<path d="M53500 15500
L54500 15500
" />
<path d="M52500 15500
L51500 15500
" />
</g>
<g style="fill:#006464; fill-opacity:0.0; 
stroke:#006464; stroke-width:60.000000; stroke-opacity:1; 
stroke-linecap:round; stroke-linejoin:round;">
<text x="53124.960630" y="14249.960630"
textLength="1036.181102" font-size="666.653543" lengthAdjust="spacingAndGlyphs"
text-anchor="middle" opacity="0">D3</text>
<g class="stroked-text"><desc>D3</desc>
<path d="M52755 14226
L52755 13726
L52874 13726
L52946 13749
L52993 13797
L53017 13845
L53041 13940
L53041 14011
L53017 14107
L52993 14154
L52946 14202
L52874 14226
L52755 14226
" />
<path d="M53208 13726
L53517 13726
L53351 13916
L53422 13916
L53470 13940
L53493 13964
L53517 14011
L53517 14130
L53493 14178
L53470 14202
L53422 14226
L53279 14226
L53232 14202
L53208 14178
" />
</g></g>
</g>
<g style="fill:#006464; fill-opacity:0.0; 
stroke:#006464; stroke-width:60.000000; stroke-opacity:1; 
stroke-linecap:round; stroke-linejoin:round;">
<g >
</g>
<g style="fill:#840000; fill-opacity:0.0; 
stroke:#840000; stroke-width:60.000000; stroke-opacity:1; 
stroke-linecap:round; stroke-linejoin:round;">
<path style="fill:#840000; fill-opacity:0.0; 
stroke:#840000; stroke-width:60.000000; stroke-opacity:1; 
stroke-linecap:round; stroke-linejoin:round;fill:none"
d="M 49000.000000,18500.000000
49000.000000,17500.000000
" /> 
</g>
<g style="fill:#840000; fill-opacity:0.0; 
stroke:#840000; stroke-width:100.000000; stroke-opacity:1; 
stroke-linecap:round; stroke-linejoin:round;">
<path style="fill:#840000; fill-opacity:0.0; 
stroke:#840000; stroke-width:100.000000; stroke-opacity:1; 
stroke-linecap:round; stroke-linejoin:round;fill:none"
d="M 49500.000000,18500.000000
48500.000000,18500.000000
49000.000000,17500.000000
Z" /> 
<path style="fill:#840000; fill-opacity:0.0; 
stroke:#840000; stroke-width:100.000000; stroke-opacity:1; 
stroke-linecap:round; stroke-linejoin:round;fill:none"
d="M 49250.000000,17250.000000
49500.000000,17250.000000
49500.000000,17500.000000
48500.000000,17500.000000
48500.000000,17750.000000
48750.000000,17750.000000
" /> 
</g>
<g style="fill:#840000; fill-opacity:0.0; 
stroke:#840000; stroke-width:60.000000; stroke-opacity:1; 
stroke-linecap:round; stroke-linejoin:round;">
<path d="M49000 17500
L49000 16500
" />
<path d="M49000 18500
L49000 19500
" />
</g>
<g style="fill:#006464; fill-opacity:0.0; 
stroke:#006464; stroke-width:60.000000; stroke-opacity:1; 
stroke-linecap:round; stroke-linejoin:round;">
<text x="50519.330709" y="17624.960630"
textLength="1036.181102" font-size="666.653543" lengthAdjust="spacingAndGlyphs"
text-anchor="middle" opacity="0">D2</text>
<g class="stroked-text"><desc>D2</desc>
<path d="M50150 17601
L50150 17101
L50269 17101
L50340 17124
L50388 17172
L50412 17220
L50435 17315
L50435 17386
L50412 17482
L50388 17529
L50340 17577
L50269 17601
L50150 17601
" />
<path d="M50626 17148
L50650 17124
L50697 17101
L50816 17101
L50864 17124
L50888 17148
L50912 17196
L50912 17243
L50888 17315
L50602 17601
L50912 17601
" />
</g></g>
</g>
<g style="fill:#006464; fill-opacity:0.0; 
stroke:#006464; stroke-width:60.000000; stroke-opacity:1; 
stroke-linecap:round; stroke-linejoin:round;">
<g >
</g>
<g style="fill:#840000; fill-opacity:0.0; 
stroke:#840000; stroke-width:60.000000; stroke-opacity:1; 
stroke-linecap:round; stroke-linejoin:round;">
</g>
<g style="fill:#840000; fill-opacity:0.0; 
stroke:#840000; stroke-width:100.000000; stroke-opacity:1; 
stroke-linecap:round; stroke-linejoin:round;">
<rect x="61100.000000" y="17500.000000" width="800.000000" height="2000.000000" rx="0.000000" />
</g>
<g style="fill:#840000; fill-opacity:0.0; 
stroke:#840000; stroke-width:60.000000; stroke-opacity:1; 
stroke-linecap:round; stroke-linejoin:round;">
<path d="M61500 17500
L61500 17000
" />
<path d="M61500 19500
L61500 20000
" />
</g>
<g style="fill:#006464; fill-opacity:0.0; 
stroke:#006464; stroke-width:60.000000; stroke-opacity:1; 
stroke-linecap:round; stroke-linejoin:round;">
<text x="63019.330709" y="18249.960630"
textLength="1036.181102" font-size="666.653543" lengthAdjust="spacingAndGlyphs"
text-anchor="middle" opacity="0">R1</text>
<g class="stroked-text"><desc>R1</desc>
<path d="M62935 18226
L62769 17988
" />
<path d="M62650 18226
L62650 17726
L62840 17726
L62888 17749
L62912 17773
L62935 17821
L62935 17892
L62912 17940
L62888 17964
L62840 17988
L62650 17988
" />
<path d="M63412 18226
L63126 18226
" />
<path d="M63269 18226
L63269 17726
L63221 17797
L63174 17845
L63126 17868
" />
</g><text x="62781.259843" y="19249.960630"
textLength="560.000000" font-size="666.653543" lengthAdjust="spacingAndGlyphs"
text-anchor="middle" opacity="0">R</text>
<g class="stroked-text"><desc>R</desc>
<path d="M62935 19226
L62769 18988
" />
<path d="M62650 19226
L62650 18726
L62840 18726
L62888 18749
L62912 18773
L62935 18821
L62935 18892
L62912 18940
L62888 18964
L62840 18988
L62650 18988
" />
</g></g>
</g>
<g style="fill:#006464; fill-opacity:0.0; 
stroke:#006464; stroke-width:60.000000; stroke-opacity:1; 
stroke-linecap:round; stroke-linejoin:round;">
<g >
</g>
<g style="fill:#840000; fill-opacity:0.0; 
stroke:#840000; stroke-width:60.000000; stroke-opacity:1; 
stroke-linecap:round; stroke-linejoin:round;">
</g>
<g style="fill:#840000; fill-opacity:0.0; 
stroke:#840000; stroke-width:200.000000; stroke-opacity:1; 
stroke-linecap:round; stroke-linejoin:round;">
<path style="fill:#840000; fill-opacity:0.0; 
stroke:#840000; stroke-width:200.000000; stroke-opacity:1; 
stroke-linecap:round; stroke-linejoin:round;fill:none"
d="M 69700.000000,23300.000000
71300.000000,23300.000000
" /> 
<path style="fill:#840000; fill-opacity:0.0; 
stroke:#840000; stroke-width:200.000000; stroke-opacity:1; 
stroke-linecap:round; stroke-linejoin:round;fill:none"
d="M 69700.000000,22700.000000
71300.000000,22700.000000
" /> 
</g>
<g style="fill:#840000; fill-opacity:0.0; 
stroke:#840000; stroke-width:60.000000; stroke-opacity:1; 
stroke-linecap:round; stroke-linejoin:round;">
<path d="M70500 22600
L70500 21500
" />
<path d="M70500 23400
L70500 24500
" />
</g>
<g style="fill:#006464; fill-opacity:0.0; 
stroke:#006464; stroke-width:60.000000; stroke-opacity:1; 
stroke-linecap:round; stroke-linejoin:round;">
<text x="68480.629921" y="22749.960630"
textLength="1036.181102" font-size="666.653543" lengthAdjust="spacingAndGlyphs"
text-anchor="middle" opacity="0">C5</text>
<g class="stroked-text"><desc>C5</desc>
<path d="M68397 22678
L68373 22702
L68302 22726
L68254 22726
L68182 22702
L68135 22654
L68111 22607
L68087 22511
L68087 22440
L68111 22345
L68135 22297
L68182 22249
L68254 22226
L68302 22226
L68373 22249
L68397 22273
" />
<path d="M68849 22226
L68611 22226
L68587 22464
L68611 22440
L68659 22416
L68778 22416
L68825 22440
L68849 22464
L68873 22511
L68873 22630
L68849 22678
L68825 22702
L68778 22726
L68659 22726
L68611 22702
L68587 22678
" />
</g><text x="68504.448819" y="23749.960630"
textLength="988.582677" font-size="666.653543" lengthAdjust="spacingAndGlyphs"
text-anchor="middle" opacity="0">1u</text>
<g class="stroked-text"><desc>1u</desc>
<path d="M68421 23726
L68135 23726
" />
<path d="M68278 23726
L68278 23226
L68230 23297
L68182 23345
L68135 23368
" />
<path d="M68849 23392
L68849 23726
" />
<path d="M68635 23392
L68635 23654
L68659 23702
L68706 23726
L68778 23726
L68825 23702
L68849 23678
" />
</g></g>
</g>
<g style="fill:#006464; fill-opacity:0.0; 
stroke:#006464; stroke-width:60.000000; stroke-opacity:1; 
stroke-linecap:round; stroke-linejoin:round;">
<g >
</g>
<g style="fill:#840000; fill-opacity:0.0; 
stroke:#840000; stroke-width:60.000000; stroke-opacity:1; 
stroke-linecap:round; stroke-linejoin:round;">
<path style="fill:#840000; fill-opacity:0.0; 
stroke:#840000; stroke-width:60.000000; stroke-opacity:1; 
stroke-linecap:round; stroke-linejoin:round;fill:none"
d="M 99500.000000,16500.000000
99660.000000,16500.000000
" /> 
<path style="fill:#840000; fill-opacity:0.0; 
stroke:#840000; stroke-width:60.000000; stroke-opacity:1; 
stroke-linecap:round; stroke-linejoin:round;fill:none"
d="M 99500.000000,15500.000000
99660.000000,15500.000000
" /> 
</g>
<g style="fill:#840000; fill-opacity:1.0; 
stroke:#840000; stroke-width:60.000000; stroke-opacity:1; 
stroke-linecap:round; stroke-linejoin:round;">
<rect x="99660.000000" y="16450.000000" width="340.000000" height="100.000000" rx="0.000000" />
<rect x="99660.000000" y="15450.000000" width="340.000000" height="100.000000" rx="0.000000" />
</g>
<g style="fill:#840000; fill-opacity:0.0; 
stroke:#840000; stroke-width:60.000000; stroke-opacity:1; 
stroke-linecap:round; stroke-linejoin:round;">
<path d="M99500 15500
L98000 15500
" />
</g>
<g style="fill:#A90000; fill-opacity:0.0; 
stroke:#A90000; stroke-width:60.000000; stroke-opacity:1; 
stroke-linecap:round; stroke-linejoin:round;">
<text x="98750.000000" y="15400.000000"
textLength="536.181102" font-size="666.653543" lengthAdjust="spacingAndGlyphs"
text-anchor="middle" opacity="0">1</text>
<g class="stroked-text"><desc>1</desc>
<path d="M98892 15376
L98607 15376
" />
<path d="M98750 15376
L98750 14876
L98702 14947
L98654 14995
L98607 15019
" />
</g></g>
<g style="fill:#840000; fill-opacity:0.0; 
stroke:#840000; stroke-width:60.000000; stroke-opacity:1; 
stroke-linecap:round; stroke-linejoin:round;">
<path d="M99500 16500
L98000 16500
" />
</g>
<g style="fill:#A90000; fill-opacity:0.0; 
stroke:#A90000; stroke-width:60.000000; stroke-opacity:1; 
stroke-linecap:round; stroke-linejoin:round;">
<text x="98750.000000" y="16400.000000"
textLength="536.181102" font-size="666.653543" lengthAdjust="spacingAndGlyphs"
text-anchor="middle" opacity="0">2</text>
<g class="stroked-text"><desc>2</desc>
<path d="M98607 15923
L98630 15900
L98678 15876
L98797 15876
L98845 15900
L98869 15923
L98892 15971
L98892 16019
L98869 16090
L98583 16376
L98892 16376
" />
</g></g>
<g style="fill:#006464; fill-opacity:0.0; 
stroke:#006464; stroke-width:60.000000; stroke-opacity:1; 
stroke-linecap:round; stroke-linejoin:round;">
<text x="100959.803150" y="15749.960630"
textLength="917.125984" font-size="666.653543" lengthAdjust="spacingAndGlyphs"
text-anchor="middle" opacity="0">J2</text>
<g class="stroked-text"><desc>J2</desc>
<path d="M100793 15226
L100793 15583
L100769 15654
L100721 15702
L100650 15726
L100602 15726
" />
<path d="M101007 15273
L101031 15249
L101078 15226
L101197 15226
L101245 15249
L101269 15273
L101293 15321
L101293 15368
L101269 15440
L100983 15726
L101293 15726
" />
</g><text x="103852.677165" y="16749.960630"
textLength="6702.874016" font-size="666.653543" lengthAdjust="spacingAndGlyphs"
text-anchor="middle" opacity="0">Conn_01x02_Male</text>
<g class="stroked-text"><desc>Conn_01x02_Male</desc>
<path d="M100935 16678
L100912 16702
L100840 16726
L100793 16726
L100721 16702
L100674 16654
L100650 16607
L100626 16511
L100626 16440
L100650 16345
L100674 16297
L100721 16249
L100793 16226
L100840 16226
L100912 16249
L100935 16273
" />
<path d="M101221 16726
L101174 16702
L101150 16678
L101126 16630
L101126 16488
L101150 16440
L101174 16416
L101221 16392
L101293 16392
L101340 16416
L101364 16440
L101388 16488
L101388 16630
L101364 16678
L101340 16702
L101293 16726
L101221 16726
" />
<path d="M101602 16392
L101602 16726
" />
<path d="M101602 16440
L101626 16416
L101674 16392
L101745 16392
L101793 16416
L101816 16464
L101816 16726
" />
<path d="M102055 16392
L102055 16726
" />
<path d="M102055 16440
L102078 16416
L102126 16392
L102197 16392
L102245 16416
L102269 16464
L102269 16726
" />
<path d="M102388 16773
L102769 16773
" />
<path d="M102983 16226
L103031 16226
L103078 16249
L103102 16273
L103126 16321
L103150 16416
L103150 16535
L103126 16630
L103102 16678
L103078 16702
L103031 16726
L102983 16726
L102935 16702
L102912 16678
L102888 16630
L102864 16535
L102864 16416
L102888 16321
L102912 16273
L102935 16249
L102983 16226
" />
<path d="M103626 16726
L103340 16726
" />
<path d="M103483 16726
L103483 16226
L103435 16297
L103388 16345
L103340 16368
" />
<path d="M103793 16726
L104055 16392
" />
<path d="M103793 16392
L104055 16726
" />
<path d="M104340 16226
L104388 16226
L104435 16249
L104459 16273
L104483 16321
L104507 16416
L104507 16535
L104483 16630
L104459 16678
L104435 16702
L104388 16726
L104340 16726
L104293 16702
L104269 16678
L104245 16630
L104221 16535
L104221 16416
L104245 16321
L104269 16273
L104293 16249
L104340 16226
" />
<path d="M104697 16273
L104721 16249
L104769 16226
L104888 16226
L104935 16249
L104959 16273
L104983 16321
L104983 16368
L104959 16440
L104674 16726
L104983 16726
" />
<path d="M105078 16773
L105459 16773
" />
<path d="M105578 16726
L105578 16226
L105745 16583
L105912 16226
L105912 16726
" />
<path d="M106364 16726
L106364 16464
L106340 16416
L106293 16392
L106197 16392
L106150 16416
" />
<path d="M106364 16702
L106316 16726
L106197 16726
L106150 16702
L106126 16654
L106126 16607
L106150 16559
L106197 16535
L106316 16535
L106364 16511
" />
<path d="M106674 16726
L106626 16702
L106602 16654
L106602 16226
" />
<path d="M107055 16702
L107007 16726
L106912 16726
L106864 16702
L106840 16654
L106840 16464
L106864 16416
L106912 16392
L107007 16392
L107055 16416
L107078 16464
L107078 16511
L106840 16559
" />
</g></g>
</g>
<g style="fill:#006464; fill-opacity:0.0; 
stroke:#006464; stroke-width:60.000000; stroke-opacity:1; 
stroke-linecap:round; stroke-linejoin:round;">
<g >
</g>
<g style="fill:#840000; fill-opacity:0.0; 
stroke:#840000; stroke-width:60.000000; stroke-opacity:1; 
stroke-linecap:round; stroke-linejoin:round;">
</g>
<g style="fill:#840000; fill-opacity:0.0; 
stroke:#840000; stroke-width:200.000000; stroke-opacity:1; 
stroke-linecap:round; stroke-linejoin:round;">
<path style="fill:#840000; fill-opacity:0.0; 
stroke:#840000; stroke-width:200.000000; stroke-opacity:1; 
stroke-linecap:round; stroke-linejoin:round;fill:none"
d="M 57800.000000,17700.000000
56200.000000,17700.000000
" /> 
<path style="fill:#840000; fill-opacity:0.0; 
stroke:#840000; stroke-width:200.000000; stroke-opacity:1; 
stroke-linecap:round; stroke-linejoin:round;fill:none"
d="M 57800.000000,18300.000000
56200.000000,18300.000000
" /> 
</g>
<g style="fill:#840000; fill-opacity:0.0; 
stroke:#840000; stroke-width:60.000000; stroke-opacity:1; 
stroke-linecap:round; stroke-linejoin:round;">
<path d="M57000 18400
L57000 19500
" />
<path d="M57000 17600
L57000 16500
" />
</g>
<g style="fill:#006464; fill-opacity:0.0; 
stroke:#006464; stroke-width:60.000000; stroke-opacity:1; 
stroke-linecap:round; stroke-linejoin:round;">
<text x="59019.330709" y="17749.921260"
textLength="1036.181102" font-size="666.653543" lengthAdjust="spacingAndGlyphs"
text-anchor="middle" opacity="0">C4</text>
<g class="stroked-text"><desc>C4</desc>
<path d="M58935 17678
L58912 17702
L58840 17726
L58793 17726
L58721 17702
L58674 17654
L58650 17607
L58626 17511
L58626 17440
L58650 17345
L58674 17297
L58721 17249
L58793 17226
L58840 17226
L58912 17249
L58935 17273
" />
<path d="M59364 17392
L59364 17726
" />
<path d="M59245 17202
L59126 17559
L59435 17559
" />
</g><text x="59352.677165" y="18749.921260"
textLength="1702.874016" font-size="666.653543" lengthAdjust="spacingAndGlyphs"
text-anchor="middle" opacity="0">4.7u</text>
<g class="stroked-text"><desc>4.7u</desc>
<path d="M58864 18392
L58864 18726
" />
<path d="M58745 18202
L58626 18559
L58935 18559
" />
<path d="M59126 18678
L59150 18702
L59126 18726
L59102 18702
L59126 18678
L59126 18726
" />
<path d="M59316 18226
L59650 18226
L59435 18726
" />
<path d="M60055 18392
L60055 18726
" />
<path d="M59840 18392
L59840 18654
L59864 18702
L59912 18726
L59983 18726
L60031 18702
L60055 18678
" />
</g></g>
</g>
<g style="fill:#006464; fill-opacity:0.0; 
stroke:#006464; stroke-width:60.000000; stroke-opacity:1; 
stroke-linecap:round; stroke-linejoin:round;">
<g >
</g>
<g style="fill:#840000; fill-opacity:0.0; 
stroke:#840000; stroke-width:60.000000; stroke-opacity:1; 
stroke-linecap:round; stroke-linejoin:round;">
<path style="fill:#840000; fill-opacity:0.0; 
stroke:#840000; stroke-width:60.000000; stroke-opacity:1; 
stroke-linecap:round; stroke-linejoin:round;fill:none"
d="M 79500.000000,26000.000000
79500.000000,26500.000000
80000.000000,26500.000000
79500.000000,27000.000000
79000.000000,26500.000000
79500.000000,26500.000000
" /> 
</g>
<g style="fill:#006464; fill-opacity:0.0; 
stroke:#006464; stroke-width:60.000000; stroke-opacity:1; 
stroke-linecap:round; stroke-linejoin:round;">
<text x="79500.000000" y="28250.000000"
textLength="1583.818898" font-size="666.653543" lengthAdjust="spacingAndGlyphs"
text-anchor="middle" opacity="0">GND</text>
<g class="stroked-text"><desc>GND</desc>
<path d="M79119 27750
L79071 27726
L79000 27726
L78928 27750
L78880 27797
L78857 27845
L78833 27940
L78833 28011
L78857 28107
L78880 28154
L78928 28202
L79000 28226
L79047 28226
L79119 28202
L79142 28178
L79142 28011
L79047 28011
" />
<path d="M79357 28226
L79357 27726
L79642 28226
L79642 27726
" />
<path d="M79880 28226
L79880 27726
L80000 27726
L80071 27750
L80119 27797
L80142 27845
L80166 27940
L80166 28011
L80142 28107
L80119 28154
L80071 28202
L80000 28226
L79880 28226
" />
</g></g>
</g>
<g style="fill:#006464; fill-opacity:0.0; 
stroke:#006464; stroke-width:60.000000; stroke-opacity:1; 
stroke-linecap:round; stroke-linejoin:round;">
<g >
</g>
<g style="fill:#840000; fill-opacity:0.0; 
stroke:#840000; stroke-width:60.000000; stroke-opacity:1; 
stroke-linecap:round; stroke-linejoin:round;">
<path style="fill:#840000; fill-opacity:0.0; 
stroke:#840000; stroke-width:60.000000; stroke-opacity:1; 
stroke-linecap:round; stroke-linejoin:round;fill:none"
d="M 70500.000000,26000.000000
70500.000000,26500.000000
71000.000000,26500.000000
70500.000000,27000.000000
70000.000000,26500.000000
70500.000000,26500.000000
" /> 
</g>
<g style="fill:#006464; fill-opacity:0.0; 
stroke:#006464; stroke-width:60.000000; stroke-opacity:1; 
stroke-linecap:round; stroke-linejoin:round;">
<text x="70500.000000" y="28250.000000"
textLength="1583.818898" font-size="666.653543" lengthAdjust="spacingAndGlyphs"
text-anchor="middle" opacity="0">GND</text>
<g class="stroked-text"><desc>GND</desc>
<path d="M70119 27750
L70071 27726
L70000 27726
L69928 27750
L69880 27797
L69857 27845
L69833 27940
L69833 28011
L69857 28107
L69880 28154
L69928 28202
L70000 28226
L70047 28226
L70119 28202
L70142 28178
L70142 28011
L70047 28011
" />
<path d="M70357 28226
L70357 27726
L70642 28226
L70642 27726
" />
<path d="M70880 28226
L70880 27726
L71000 27726
L71071 27750
L71119 27797
L71142 27845
L71166 27940
L71166 28011
L71142 28107
L71119 28154
L71071 28202
L71000 28226
L70880 28226
" />
</g></g>
</g>
<g style="fill:#006464; fill-opacity:0.0; 
stroke:#006464; stroke-width:60.000000; stroke-opacity:1; 
stroke-linecap:round; stroke-linejoin:round;">
<g >
</g>
<g style="fill:#840000; fill-opacity:0.0; 
stroke:#840000; stroke-width:60.000000; stroke-opacity:1; 
stroke-linecap:round; stroke-linejoin:round;">
<path style="fill:#840000; fill-opacity:0.0; 
stroke:#840000; stroke-width:60.000000; stroke-opacity:1; 
stroke-linecap:round; stroke-linejoin:round;fill:none"
d="M 73000.000000,26000.000000
73000.000000,26500.000000
73500.000000,26500.000000
73000.000000,27000.000000
72500.000000,26500.000000
73000.000000,26500.000000
" /> 
</g>
<g style="fill:#006464; fill-opacity:0.0; 
stroke:#006464; stroke-width:60.000000; stroke-opacity:1; 
stroke-linecap:round; stroke-linejoin:round;">
<text x="73000.000000" y="28250.000000"
textLength="1583.818898" font-size="666.653543" lengthAdjust="spacingAndGlyphs"
text-anchor="middle" opacity="0">GND</text>
<g class="stroked-text"><desc>GND</desc>
<path d="M72619 27750
L72571 27726
L72500 27726
L72428 27750
L72380 27797
L72357 27845
L72333 27940
L72333 28011
L72357 28107
L72380 28154
L72428 28202
L72500 28226
L72547 28226
L72619 28202
L72642 28178
L72642 28011
L72547 28011
" />
<path d="M72857 28226
L72857 27726
L73142 28226
L73142 27726
" />
<path d="M73380 28226
L73380 27726
L73500 27726
L73571 27750
L73619 27797
L73642 27845
L73666 27940
L73666 28011
L73642 28107
L73619 28154
L73571 28202
L73500 28226
L73380 28226
" />
</g></g>
</g>
<g style="fill:#006464; fill-opacity:0.0; 
stroke:#006464; stroke-width:60.000000; stroke-opacity:1; 
stroke-linecap:round; stroke-linejoin:round;">
<g >
</g>
<g style="fill:#840000; fill-opacity:0.0; 
stroke:#840000; stroke-width:60.000000; stroke-opacity:1; 
stroke-linecap:round; stroke-linejoin:round;">
<rect x="72100.000000" y="22600.000000" width="1800.000000" height="200.000000" rx="0.000000" />
<path style="fill:#840000; fill-opacity:0.0; 
stroke:#840000; stroke-width:60.000000; stroke-opacity:1; 
stroke-linecap:round; stroke-linejoin:round;fill:none"
d="M 72300.000000,22100.000000
72700.000000,22100.000000
" /> 
<path style="fill:#840000; fill-opacity:0.0; 
stroke:#840000; stroke-width:60.000000; stroke-opacity:1; 
stroke-linecap:round; stroke-linejoin:round;fill:none"
d="M 72500.000000,21900.000000
72500.000000,22300.000000
" /> 
</g>
<g style="fill:#840000; fill-opacity:1.0; 
stroke:#840000; stroke-width:60.000000; stroke-opacity:1; 
stroke-linecap:round; stroke-linejoin:round;">
<rect x="72100.000000" y="23200.000000" width="1800.000000" height="200.000000" rx="0.000000" />
</g>
<g style="fill:#840000; fill-opacity:0.0; 
stroke:#840000; stroke-width:60.000000; stroke-opacity:1; 
stroke-linecap:round; stroke-linejoin:round;">
<path d="M73000 22600
L73000 21500
" />
<path d="M73000 23400
L73000 24500
" />
</g>
<g style="fill:#006464; fill-opacity:0.0; 
stroke:#006464; stroke-width:60.000000; stroke-opacity:1; 
stroke-linecap:round; stroke-linejoin:round;">
<text x="75019.330709" y="22399.960630"
textLength="1036.181102" font-size="666.653543" lengthAdjust="spacingAndGlyphs"
text-anchor="middle" opacity="0">C6</text>
<g class="stroked-text"><desc>C6</desc>
<path d="M74935 22328
L74912 22352
L74840 22376
L74793 22376
L74721 22352
L74674 22304
L74650 22257
L74626 22161
L74626 22090
L74650 21995
L74674 21947
L74721 21899
L74793 21876
L74840 21876
L74912 21899
L74935 21923
" />
<path d="M75364 21876
L75269 21876
L75221 21899
L75197 21923
L75150 21995
L75126 22090
L75126 22280
L75150 22328
L75174 22352
L75221 22376
L75316 22376
L75364 22352
L75388 22328
L75412 22280
L75412 22161
L75388 22114
L75364 22090
L75316 22066
L75221 22066
L75174 22090
L75150 22114
L75126 22161
" />
</g><text x="75709.803150" y="23399.960630"
textLength="2417.125984" font-size="666.653543" lengthAdjust="spacingAndGlyphs"
text-anchor="middle" opacity="0">1000u</text>
<g class="stroked-text"><desc>1000u</desc>
<path d="M74912 23376
L74626 23376
" />
<path d="M74769 23376
L74769 22876
L74721 22947
L74674 22995
L74626 23018
" />
<path d="M75221 22876
L75269 22876
L75316 22899
L75340 22923
L75364 22971
L75388 23066
L75388 23185
L75364 23280
L75340 23328
L75316 23352
L75269 23376
L75221 23376
L75174 23352
L75150 23328
L75126 23280
L75102 23185
L75102 23066
L75126 22971
L75150 22923
L75174 22899
L75221 22876
" />
<path d="M75697 22876
L75745 22876
L75793 22899
L75816 22923
L75840 22971
L75864 23066
L75864 23185
L75840 23280
L75816 23328
L75793 23352
L75745 23376
L75697 23376
L75650 23352
L75626 23328
L75602 23280
L75578 23185
L75578 23066
L75602 22971
L75626 22923
L75650 22899
L75697 22876
" />
<path d="M76174 22876
L76221 22876
L76269 22899
L76293 22923
L76316 22971
L76340 23066
L76340 23185
L76316 23280
L76293 23328
L76269 23352
L76221 23376
L76174 23376
L76126 23352
L76102 23328
L76078 23280
L76055 23185
L76055 23066
L76078 22971
L76102 22923
L76126 22899
L76174 22876
" />
<path d="M76769 23042
L76769 23376
" />
<path d="M76555 23042
L76555 23304
L76578 23352
L76626 23376
L76697 23376
L76745 23352
L76769 23328
" />
</g></g>
</g>
<g style="fill:#006464; fill-opacity:0.0; 
stroke:#006464; stroke-width:60.000000; stroke-opacity:1; 
stroke-linecap:round; stroke-linejoin:round;">
<g >
</g>
<g style="fill:#840000; fill-opacity:0.0; 
stroke:#840000; stroke-width:60.000000; stroke-opacity:1; 
stroke-linecap:round; stroke-linejoin:round;">
<rect x="32500.000000" y="20000.000000" width="4000.000000" height="5000.000000" rx="0.000000" />
<path d="M36500 21000
L37500 21000
" />
</g>
<g style="fill:#006464; fill-opacity:0.0; 
stroke:#006464; stroke-width:60.000000; stroke-opacity:1; 
stroke-linecap:round; stroke-linejoin:round;">
<text x="36300.000000" y="21250.000000"
textLength="1107.637795" font-size="666.653543" lengthAdjust="spacingAndGlyphs"
text-anchor="end" opacity="0">SW</text>
<g class="stroked-text"><desc>SW</desc>
<path d="M35317 21202
L35389 21226
L35508 21226
L35555 21202
L35579 21178
L35603 21130
L35603 21083
L35579 21035
L35555 21011
L35508 20988
L35412 20964
L35365 20940
L35341 20916
L35317 20869
L35317 20821
L35341 20773
L35365 20750
L35412 20726
L35531 20726
L35603 20750
" />
<path d="M35770 20726
L35889 21226
L35984 20869
L36079 21226
L36198 20726
" />
</g></g>
<g style="fill:#A90000; fill-opacity:0.0; 
stroke:#A90000; stroke-width:60.000000; stroke-opacity:1; 
stroke-linecap:round; stroke-linejoin:round;">
<text x="37000.000000" y="20900.000000"
textLength="536.181102" font-size="666.653543" lengthAdjust="spacingAndGlyphs"
text-anchor="middle" opacity="0">1</text>
<g class="stroked-text"><desc>1</desc>
<path d="M37142 20876
L36857 20876
" />
<path d="M37000 20876
L37000 20376
L36952 20447
L36904 20495
L36857 20519
" />
</g></g>
<g style="fill:#840000; fill-opacity:0.0; 
stroke:#840000; stroke-width:60.000000; stroke-opacity:1; 
stroke-linecap:round; stroke-linejoin:round;">
<path d="M36500 22500
L37500 22500
" />
</g>
<g style="fill:#006464; fill-opacity:0.0; 
stroke:#006464; stroke-width:60.000000; stroke-opacity:1; 
stroke-linecap:round; stroke-linejoin:round;">
<text x="36300.000000" y="22750.000000"
textLength="1583.818898" font-size="666.653543" lengthAdjust="spacingAndGlyphs"
text-anchor="end" opacity="0">GND</text>
<g class="stroked-text"><desc>GND</desc>
<path d="M35127 22250
L35079 22226
L35008 22226
L34936 22250
L34889 22297
L34865 22345
L34841 22440
L34841 22511
L34865 22607
L34889 22654
L34936 22702
L35008 22726
L35055 22726
L35127 22702
L35150 22678
L35150 22511
L35055 22511
" />
<path d="M35365 22726
L35365 22226
L35650 22726
L35650 22226
" />
<path d="M35889 22726
L35889 22226
L36008 22226
L36079 22250
L36127 22297
L36150 22345
L36174 22440
L36174 22511
L36150 22607
L36127 22654
L36079 22702
L36008 22726
L35889 22726
" />
</g></g>
<g style="fill:#A90000; fill-opacity:0.0; 
stroke:#A90000; stroke-width:60.000000; stroke-opacity:1; 
stroke-linecap:round; stroke-linejoin:round;">
<text x="37000.000000" y="22400.000000"
textLength="536.181102" font-size="666.653543" lengthAdjust="spacingAndGlyphs"
text-anchor="middle" opacity="0">2</text>
<g class="stroked-text"><desc>2</desc>
<path d="M36857 21923
L36880 21900
L36928 21876
L37047 21876
L37095 21900
L37119 21923
L37142 21971
L37142 22019
L37119 22090
L36833 22376
L37142 22376
" />
</g></g>
<g style="fill:#840000; fill-opacity:0.0; 
stroke:#840000; stroke-width:60.000000; stroke-opacity:1; 
stroke-linecap:round; stroke-linejoin:round;">
<path d="M36500 24000
L37500 24000
" />
</g>
<g style="fill:#006464; fill-opacity:0.0; 
stroke:#006464; stroke-width:60.000000; stroke-opacity:1; 
stroke-linecap:round; stroke-linejoin:round;">
<text x="36300.000000" y="24250.000000"
textLength="988.582677" font-size="666.653543" lengthAdjust="spacingAndGlyphs"
text-anchor="end" opacity="0">FB</text>
<g class="stroked-text"><desc>FB</desc>
<path d="M35627 23964
L35460 23964
" />
<path d="M35460 24226
L35460 23726
L35698 23726
" />
<path d="M36055 23964
L36127 23988
L36150 24011
L36174 24059
L36174 24130
L36150 24178
L36127 24202
L36079 24226
L35889 24226
L35889 23726
L36055 23726
L36103 23750
L36127 23773
L36150 23821
L36150 23869
L36127 23916
L36103 23940
L36055 23964
L35889 23964
" />
</g></g>
<g style="fill:#A90000; fill-opacity:0.0; 
stroke:#A90000; stroke-width:60.000000; stroke-opacity:1; 
stroke-linecap:round; stroke-linejoin:round;">
<text x="37000.000000" y="23900.000000"
textLength="536.181102" font-size="666.653543" lengthAdjust="spacingAndGlyphs"
text-anchor="middle" opacity="0">3</text>
<g class="stroked-text"><desc>3</desc>
<path d="M36833 23376
L37142 23376
L36976 23566
L37047 23566
L37095 23590
L37119 23614
L37142 23661
L37142 23780
L37119 23828
L37095 23852
L37047 23876
L36904 23876
L36857 23852
L36833 23828
" />
</g></g>
<g style="fill:#840000; fill-opacity:0.0; 
stroke:#840000; stroke-width:60.000000; stroke-opacity:1; 
stroke-linecap:round; stroke-linejoin:round;">
<path d="M32500 21000
L31500 21000
" />
</g>
<g style="fill:#006464; fill-opacity:0.0; 
stroke:#006464; stroke-width:60.000000; stroke-opacity:1; 
stroke-linecap:round; stroke-linejoin:round;">
<text x="32700.000000" y="21250.000000"
textLength="1036.181102" font-size="666.653543" lengthAdjust="spacingAndGlyphs"
text-anchor="start" opacity="0">EN</text>
<g class="stroked-text"><desc>EN</desc>
<path d="M32849 20964
L33015 20964
" />
<path d="M33087 21226
L32849 21226
L32849 20726
L33087 20726
" />
<path d="M33301 21226
L33301 20726
L33587 21226
L33587 20726
" />
</g></g>
<g style="fill:#A90000; fill-opacity:0.0; 
stroke:#A90000; stroke-width:60.000000; stroke-opacity:1; 
stroke-linecap:round; stroke-linejoin:round;">
<text x="32000.000000" y="20900.000000"
textLength="536.181102" font-size="666.653543" lengthAdjust="spacingAndGlyphs"
text-anchor="middle" opacity="0">4</text>
<g class="stroked-text"><desc>4</desc>
<path d="M32095 20542
L32095 20876
" />
<path d="M31976 20352
L31857 20709
L32166 20709
" />
</g></g>
<g style="fill:#840000; fill-opacity:0.0; 
stroke:#840000; stroke-width:60.000000; stroke-opacity:1; 
stroke-linecap:round; stroke-linejoin:round;">
<path d="M32500 22500
L31500 22500
" />
</g>
<g style="fill:#006464; fill-opacity:0.0; 
stroke:#006464; stroke-width:60.000000; stroke-opacity:1; 
stroke-linecap:round; stroke-linejoin:round;">
<text x="32700.000000" y="22750.000000"
textLength="1250.472441" font-size="666.653543" lengthAdjust="spacingAndGlyphs"
text-anchor="start" opacity="0">VIN</text>
<g class="stroked-text"><desc>VIN</desc>
<path d="M32777 22226
L32944 22726
L33110 22226
" />
<path d="M33277 22726
L33277 22226
" />
<path d="M33515 22726
L33515 22226
L33801 22726
L33801 22226
" />
</g></g>
<g style="fill:#A90000; fill-opacity:0.0; 
stroke:#A90000; stroke-width:60.000000; stroke-opacity:1; 
stroke-linecap:round; stroke-linejoin:round;">
<text x="32000.000000" y="22400.000000"
textLength="536.181102" font-size="666.653543" lengthAdjust="spacingAndGlyphs"
text-anchor="middle" opacity="0">5</text>
<g class="stroked-text"><desc>5</desc>
<path d="M32119 21876
L31880 21876
L31857 22114
L31880 22090
L31928 22066
L32047 22066
L32095 22090
L32119 22114
L32142 22161
L32142 22280
L32119 22328
L32095 22352
L32047 22376
L31928 22376
L31880 22352
L31857 22328
" />
</g></g>
<g style="fill:#840000; fill-opacity:0.0; 
stroke:#840000; stroke-width:60.000000; stroke-opacity:1; 
stroke-linecap:round; stroke-linejoin:round;">
<path d="M32500 24000
L31500 24000
" />
<path d="M31350 23850
L31650 24150
" />
<path d="M31650 23850
L31350 24150
" />
</g>
<g style="fill:#006464; fill-opacity:0.0; 
stroke:#006464; stroke-width:60.000000; stroke-opacity:1; 
stroke-linecap:round; stroke-linejoin:round;">
<text x="32700.000000" y="24250.000000"
textLength="1083.818898" font-size="666.653543" lengthAdjust="spacingAndGlyphs"
text-anchor="start" opacity="0">NC</text>
<g class="stroked-text"><desc>NC</desc>
<path d="M32849 24226
L32849 23726
L33134 24226
L33134 23726
" />
<path d="M33658 24178
L33634 24202
L33563 24226
L33515 24226
L33444 24202
L33396 24154
L33372 24107
L33349 24011
L33349 23940
L33372 23845
L33396 23797
L33444 23750
L33515 23726
L33563 23726
L33634 23750
L33658 23773
" />
</g></g>
<g style="fill:#A90000; fill-opacity:0.0; 
stroke:#A90000; stroke-width:60.000000; stroke-opacity:1; 
stroke-linecap:round; stroke-linejoin:round;">
<text x="32000.000000" y="23900.000000"
textLength="536.181102" font-size="666.653543" lengthAdjust="spacingAndGlyphs"
text-anchor="middle" opacity="0">6</text>
<g class="stroked-text"><desc>6</desc>
<path d="M32095 23376
L32000 23376
L31952 23400
L31928 23423
L31880 23495
L31857 23590
L31857 23780
L31880 23828
L31904 23852
L31952 23876
L32047 23876
L32095 23852
L32119 23828
L32142 23780
L32142 23661
L32119 23614
L32095 23590
L32047 23566
L31952 23566
L31904 23590
L31880 23614
L31857 23661
" />
</g></g>
<g style="fill:#006464; fill-opacity:0.0; 
stroke:#006464; stroke-width:60.000000; stroke-opacity:1; 
stroke-linecap:round; stroke-linejoin:round;">
<text x="34500.000000" y="18250.000000"
textLength="1060.000000" font-size="666.653543" lengthAdjust="spacingAndGlyphs"
text-anchor="middle" opacity="0">U1</text>
<g class="stroked-text"><desc>U1</desc>
<path d="M34119 17726
L34119 18130
L34142 18178
L34166 18202
L34214 18226
L34309 18226
L34357 18202
L34380 18178
L34404 18130
L34404 17726
" />
<path d="M34904 18226
L34619 18226
" />
<path d="M34761 18226
L34761 17726
L34714 17797
L34666 17845
L34619 17869
" />
</g><text x="34500.000000" y="19250.000000"
textLength="2940.944882" font-size="666.653543" lengthAdjust="spacingAndGlyphs"
text-anchor="middle" opacity="0">SB6286</text>
<g class="stroked-text"><desc>SB6286</desc>
<path d="M33154 19202
L33226 19226
L33345 19226
L33392 19202
L33416 19178
L33440 19130
L33440 19083
L33416 19035
L33392 19011
L33345 18988
L33250 18964
L33202 18940
L33178 18916
L33154 18869
L33154 18821
L33178 18773
L33202 18750
L33250 18726
L33369 18726
L33440 18750
" />
<path d="M33821 18964
L33892 18988
L33916 19011
L33940 19059
L33940 19130
L33916 19178
L33892 19202
L33845 19226
L33654 19226
L33654 18726
L33821 18726
L33869 18750
L33892 18773
L33916 18821
L33916 18869
L33892 18916
L33869 18940
L33821 18964
L33654 18964
" />
<path d="M34369 18726
L34273 18726
L34226 18750
L34202 18773
L34154 18845
L34130 18940
L34130 19130
L34154 19178
L34178 19202
L34226 19226
L34321 19226
L34369 19202
L34392 19178
L34416 19130
L34416 19011
L34392 18964
L34369 18940
L34321 18916
L34226 18916
L34178 18940
L34154 18964
L34130 19011
" />
<path d="M34607 18773
L34630 18750
L34678 18726
L34797 18726
L34845 18750
L34869 18773
L34892 18821
L34892 18869
L34869 18940
L34583 19226
L34892 19226
" />
<path d="M35178 18940
L35130 18916
L35107 18892
L35083 18845
L35083 18821
L35107 18773
L35130 18750
L35178 18726
L35273 18726
L35321 18750
L35345 18773
L35369 18821
L35369 18845
L35345 18892
L35321 18916
L35273 18940
L35178 18940
L35130 18964
L35107 18988
L35083 19035
L35083 19130
L35107 19178
L35130 19202
L35178 19226
L35273 19226
L35321 19202
L35345 19178
L35369 19130
L35369 19035
L35345 18988
L35321 18964
L35273 18940
" />
<path d="M35797 18726
L35702 18726
L35654 18750
L35630 18773
L35583 18845
L35559 18940
L35559 19130
L35583 19178
L35607 19202
L35654 19226
L35750 19226
L35797 19202
L35821 19178
L35845 19130
L35845 19011
L35821 18964
L35797 18940
L35750 18916
L35654 18916
L35607 18940
L35583 18964
L35559 19011
" />
</g></g>
</g>
<g style="fill:#006464; fill-opacity:0.0; 
stroke:#006464; stroke-width:60.000000; stroke-opacity:1; 
stroke-linecap:round; stroke-linejoin:round;">
<g >
</g>
<g style="fill:#840000; fill-opacity:0.0; 
stroke:#840000; stroke-width:60.000000; stroke-opacity:1; 
stroke-linecap:round; stroke-linejoin:round;">
<path d="M35499.999619 15499.563668 A250.000000 250.000000 0.0 0 0 35000.000381 15499.563668" />
<path d="M34999.999619 15499.563668 A250.000000 250.000000 0.0 0 0 34500.000381 15499.563668" />
<path d="M34499.999619 15499.563668 A250.000000 250.000000 0.0 0 0 34000.000381 15499.563668" />
<path d="M33999.999619 15499.563668 A250.000000 250.000000 0.0 0 0 33500.000381 15499.563668" />
<path d="M33500 15500
L33000 15500
" />
<path d="M35500 15500
L36000 15500
" />
</g>
<g style="fill:#006464; fill-opacity:0.0; 
stroke:#006464; stroke-width:60.000000; stroke-opacity:1; 
stroke-linecap:round; stroke-linejoin:round;">
<text x="34500.000000" y="13249.960630"
textLength="940.944882" font-size="666.653543" lengthAdjust="spacingAndGlyphs"
text-anchor="middle" opacity="0">L1</text>
<g class="stroked-text"><desc>L1</desc>
<path d="M34416 13226
L34178 13226
L34178 12726
" />
<path d="M34845 13226
L34559 13226
" />
<path d="M34702 13226
L34702 12726
L34654 12797
L34607 12845
L34559 12868
" />
</g><text x="34499.960630" y="14249.960630"
textLength="1464.763780" font-size="666.653543" lengthAdjust="spacingAndGlyphs"
text-anchor="middle" opacity="0">22u</text>
<g class="stroked-text"><desc>22u</desc>
<path d="M33892 13773
L33916 13749
L33964 13726
L34083 13726
L34130 13749
L34154 13773
L34178 13821
L34178 13868
L34154 13940
L33868 14226
L34178 14226
" />
<path d="M34368 13773
L34392 13749
L34440 13726
L34559 13726
L34607 13749
L34630 13773
L34654 13821
L34654 13868
L34630 13940
L34345 14226
L34654 14226
" />
<path d="M35083 13892
L35083 14226
" />
<path d="M34868 13892
L34868 14154
L34892 14202
L34940 14226
L35011 14226
L35059 14202
L35083 14178
" />
</g></g>
</g>
<g style="fill:#006464; fill-opacity:0.0; 
stroke:#006464; stroke-width:60.000000; stroke-opacity:1; 
stroke-linecap:round; stroke-linejoin:round;">
<g >
</g>
<g style="fill:#840000; fill-opacity:0.0; 
stroke:#840000; stroke-width:60.000000; stroke-opacity:1; 
stroke-linecap:round; stroke-linejoin:round;">
<path style="fill:#840000; fill-opacity:0.0; 
stroke:#840000; stroke-width:60.000000; stroke-opacity:1; 
stroke-linecap:round; stroke-linejoin:round;fill:none"
d="M 22200.000000,17500.000000
22500.000000,17000.000000
" /> 
<path style="fill:#840000; fill-opacity:0.0; 
stroke:#840000; stroke-width:60.000000; stroke-opacity:1; 
stroke-linecap:round; stroke-linejoin:round;fill:none"
d="M 22500.000000,18000.000000
22500.000000,17000.000000
" /> 
<path style="fill:#840000; fill-opacity:0.0; 
stroke:#840000; stroke-width:60.000000; stroke-opacity:1; 
stroke-linecap:round; stroke-linejoin:round;fill:none"
d="M 22500.000000,17000.000000
22800.000000,17500.000000
" /> 
</g>
<g style="fill:#006464; fill-opacity:0.0; 
stroke:#006464; stroke-width:60.000000; stroke-opacity:1; 
stroke-linecap:round; stroke-linejoin:round;">
<text x="22500.000000" y="16250.000000"
textLength="1488.582677" font-size="666.653543" lengthAdjust="spacingAndGlyphs"
text-anchor="middle" opacity="0">VDD</text>
<g class="stroked-text"><desc>VDD</desc>
<path d="M21833 15726
L22000 16226
L22166 15726
" />
<path d="M22333 16226
L22333 15726
L22452 15726
L22523 15750
L22571 15797
L22595 15845
L22619 15940
L22619 16011
L22595 16107
L22571 16154
L22523 16202
L22452 16226
L22333 16226
" />
<path d="M22833 16226
L22833 15726
L22952 15726
L23023 15750
L23071 15797
L23095 15845
L23119 15940
L23119 16011
L23095 16107
L23071 16154
L23023 16202
L22952 16226
L22833 16226
" />
</g></g>
</g>
<g style="fill:#006464; fill-opacity:0.0; 
stroke:#006464; stroke-width:60.000000; stroke-opacity:1; 
stroke-linecap:round; stroke-linejoin:round;">
<g >
</g>
<g style="fill:#840000; fill-opacity:0.0; 
stroke:#840000; stroke-width:60.000000; stroke-opacity:1; 
stroke-linecap:round; stroke-linejoin:round;">
<path style="fill:#840000; fill-opacity:0.0; 
stroke:#840000; stroke-width:60.000000; stroke-opacity:1; 
stroke-linecap:round; stroke-linejoin:round;fill:none"
d="M 39500.000000,26500.000000
39500.000000,27000.000000
40000.000000,27000.000000
39500.000000,27500.000000
39000.000000,27000.000000
39500.000000,27000.000000
" /> 
</g>
<g style="fill:#006464; fill-opacity:0.0; 
stroke:#006464; stroke-width:60.000000; stroke-opacity:1; 
stroke-linecap:round; stroke-linejoin:round;">
<text x="39500.000000" y="28750.000000"
textLength="1583.818898" font-size="666.653543" lengthAdjust="spacingAndGlyphs"
text-anchor="middle" opacity="0">GND</text>
<g class="stroked-text"><desc>GND</desc>
<path d="M39119 28250
L39071 28226
L39000 28226
L38928 28250
L38880 28297
L38857 28345
L38833 28440
L38833 28511
L38857 28607
L38880 28654
L38928 28702
L39000 28726
L39047 28726
L39119 28702
L39142 28678
L39142 28511
L39047 28511
" />
<path d="M39357 28726
L39357 28226
L39642 28726
L39642 28226
" />
<path d="M39880 28726
L39880 28226
L40000 28226
L40071 28250
L40119 28297
L40142 28345
L40166 28440
L40166 28511
L40142 28607
L40119 28654
L40071 28702
L40000 28726
L39880 28726
" />
</g></g>
</g>
<g style="fill:#006464; fill-opacity:0.0; 
stroke:#006464; stroke-width:60.000000; stroke-opacity:1; 
stroke-linecap:round; stroke-linejoin:round;">
<g >
</g>
<g style="fill:#840000; fill-opacity:0.0; 
stroke:#840000; stroke-width:60.000000; stroke-opacity:1; 
stroke-linecap:round; stroke-linejoin:round;">
<path style="fill:#840000; fill-opacity:0.0; 
stroke:#840000; stroke-width:60.000000; stroke-opacity:1; 
stroke-linecap:round; stroke-linejoin:round;fill:none"
d="M 22500.000000,26500.000000
22500.000000,27000.000000
23000.000000,27000.000000
22500.000000,27500.000000
22000.000000,27000.000000
22500.000000,27000.000000
" /> 
</g>
<g style="fill:#006464; fill-opacity:0.0; 
stroke:#006464; stroke-width:60.000000; stroke-opacity:1; 
stroke-linecap:round; stroke-linejoin:round;">
<text x="22500.000000" y="28750.000000"
textLength="1583.818898" font-size="666.653543" lengthAdjust="spacingAndGlyphs"
text-anchor="middle" opacity="0">GND</text>
<g class="stroked-text"><desc>GND</desc>
<path d="M22119 28250
L22071 28226
L22000 28226
L21928 28250
L21880 28297
L21857 28345
L21833 28440
L21833 28511
L21857 28607
L21880 28654
L21928 28702
L22000 28726
L22047 28726
L22119 28702
L22142 28678
L22142 28511
L22047 28511
" />
<path d="M22357 28726
L22357 28226
L22642 28726
L22642 28226
" />
<path d="M22880 28726
L22880 28226
L23000 28226
L23071 28250
L23119 28297
L23142 28345
L23166 28440
L23166 28511
L23142 28607
L23119 28654
L23071 28702
L23000 28726
L22880 28726
" />
</g></g>
</g>
<g style="fill:#006464; fill-opacity:0.0; 
stroke:#006464; stroke-width:60.000000; stroke-opacity:1; 
stroke-linecap:round; stroke-linejoin:round;">
<g >
</g>
<g style="fill:#840000; fill-opacity:0.0; 
stroke:#840000; stroke-width:60.000000; stroke-opacity:1; 
stroke-linecap:round; stroke-linejoin:round;">
</g>
<g style="fill:#840000; fill-opacity:0.0; 
stroke:#840000; stroke-width:200.000000; stroke-opacity:1; 
stroke-linecap:round; stroke-linejoin:round;">
<path style="fill:#840000; fill-opacity:0.0; 
stroke:#840000; stroke-width:200.000000; stroke-opacity:1; 
stroke-linecap:round; stroke-linejoin:round;fill:none"
d="M 21700.000000,23300.000000
23300.000000,23300.000000
" /> 
<path style="fill:#840000; fill-opacity:0.0; 
stroke:#840000; stroke-width:200.000000; stroke-opacity:1; 
stroke-linecap:round; stroke-linejoin:round;fill:none"
d="M 21700.000000,22700.000000
23300.000000,22700.000000
" /> 
</g>
<g style="fill:#840000; fill-opacity:0.0; 
stroke:#840000; stroke-width:60.000000; stroke-opacity:1; 
stroke-linecap:round; stroke-linejoin:round;">
<path d="M22500 22600
L22500 21500
" />
<path d="M22500 23400
L22500 24500
" />
</g>
<g style="fill:#006464; fill-opacity:0.0; 
stroke:#006464; stroke-width:60.000000; stroke-opacity:1; 
stroke-linecap:round; stroke-linejoin:round;">
<text x="24519.330709" y="22749.960630"
textLength="1036.181102" font-size="666.653543" lengthAdjust="spacingAndGlyphs"
text-anchor="middle" opacity="0">C1</text>
<g class="stroked-text"><desc>C1</desc>
<path d="M24435 22678
L24412 22702
L24340 22726
L24293 22726
L24221 22702
L24174 22654
L24150 22607
L24126 22511
L24126 22440
L24150 22345
L24174 22297
L24221 22249
L24293 22226
L24340 22226
L24412 22249
L24435 22273
" />
<path d="M24912 22726
L24626 22726
" />
<path d="M24769 22726
L24769 22226
L24721 22297
L24674 22345
L24626 22368
" />
</g><text x="24733.622047" y="23749.960630"
textLength="1464.763780" font-size="666.653543" lengthAdjust="spacingAndGlyphs"
text-anchor="middle" opacity="0">22u</text>
<g class="stroked-text"><desc>22u</desc>
<path d="M24126 23273
L24150 23249
L24197 23226
L24316 23226
L24364 23249
L24388 23273
L24412 23321
L24412 23368
L24388 23440
L24102 23726
L24412 23726
" />
<path d="M24602 23273
L24626 23249
L24674 23226
L24793 23226
L24840 23249
L24864 23273
L24888 23321
L24888 23368
L24864 23440
L24578 23726
L24888 23726
" />
<path d="M25316 23392
L25316 23726
" />
<path d="M25102 23392
L25102 23654
L25126 23702
L25174 23726
L25245 23726
L25293 23702
L25316 23678
" />
</g></g>
</g>
<g style="fill:#006464; fill-opacity:0.0; 
stroke:#006464; stroke-width:60.000000; stroke-opacity:1; 
stroke-linecap:round; stroke-linejoin:round;">
<g >
</g>
<g style="fill:#840000; fill-opacity:0.0; 
stroke:#840000; stroke-width:60.000000; stroke-opacity:1; 
stroke-linecap:round; stroke-linejoin:round;">
<path style="fill:#840000; fill-opacity:0.0; 
stroke:#840000; stroke-width:60.000000; stroke-opacity:1; 
stroke-linecap:round; stroke-linejoin:round;fill:none"
d="M 17500.000000,21500.000000
17500.000000,22000.000000
18000.000000,22000.000000
17500.000000,22500.000000
17000.000000,22000.000000
17500.000000,22000.000000
" /> 
</g>
<g style="fill:#006464; fill-opacity:0.0; 
stroke:#006464; stroke-width:60.000000; stroke-opacity:1; 
stroke-linecap:round; stroke-linejoin:round;">
<text x="17500.000000" y="23750.000000"
textLength="1583.818898" font-size="666.653543" lengthAdjust="spacingAndGlyphs"
text-anchor="middle" opacity="0">GND</text>
<g class="stroked-text"><desc>GND</desc>
<path d="M17119 23250
L17071 23226
L17000 23226
L16928 23250
L16880 23297
L16857 23345
L16833 23440
L16833 23511
L16857 23607
L16880 23654
L16928 23702
L17000 23726
L17047 23726
L17119 23702
L17142 23678
L17142 23511
L17047 23511
" />
<path d="M17357 23726
L17357 23226
L17642 23726
L17642 23226
" />
<path d="M17880 23726
L17880 23226
L18000 23226
L18071 23250
L18119 23297
L18142 23345
L18166 23440
L18166 23511
L18142 23607
L18119 23654
L18071 23702
L18000 23726
L17880 23726
" />
</g></g>
</g>
<g style="fill:#006464; fill-opacity:0.0; 
stroke:#006464; stroke-width:60.000000; stroke-opacity:1; 
stroke-linecap:round; stroke-linejoin:round;">
<g >
</g>
<g style="fill:#840000; fill-opacity:0.0; 
stroke:#840000; stroke-width:60.000000; stroke-opacity:1; 
stroke-linecap:round; stroke-linejoin:round;">
<path style="fill:#840000; fill-opacity:0.0; 
stroke:#840000; stroke-width:60.000000; stroke-opacity:1; 
stroke-linecap:round; stroke-linejoin:round;fill:none"
d="M 15500.000000,21000.000000
15340.000000,21000.000000
" /> 
<path style="fill:#840000; fill-opacity:0.0; 
stroke:#840000; stroke-width:60.000000; stroke-opacity:1; 
stroke-linecap:round; stroke-linejoin:round;fill:none"
d="M 15500.000000,20000.000000
15340.000000,20000.000000
" /> 
</g>
<g style="fill:#840000; fill-opacity:1.0; 
stroke:#840000; stroke-width:60.000000; stroke-opacity:1; 
stroke-linecap:round; stroke-linejoin:round;">
<rect x="15000.000000" y="20950.000000" width="340.000000" height="100.000000" rx="0.000000" />
<rect x="15000.000000" y="19950.000000" width="340.000000" height="100.000000" rx="0.000000" />
</g>
<g style="fill:#840000; fill-opacity:0.0; 
stroke:#840000; stroke-width:60.000000; stroke-opacity:1; 
stroke-linecap:round; stroke-linejoin:round;">
<path d="M15500 20000
L17000 20000
" />
</g>
<g style="fill:#A90000; fill-opacity:0.0; 
stroke:#A90000; stroke-width:60.000000; stroke-opacity:1; 
stroke-linecap:round; stroke-linejoin:round;">
<text x="16250.000000" y="19900.000000"
textLength="536.181102" font-size="666.653543" lengthAdjust="spacingAndGlyphs"
text-anchor="middle" opacity="0">1</text>
<g class="stroked-text"><desc>1</desc>
<path d="M16392 19876
L16107 19876
" />
<path d="M16250 19876
L16250 19376
L16202 19447
L16154 19495
L16107 19519
" />
</g></g>
<g style="fill:#840000; fill-opacity:0.0; 
stroke:#840000; stroke-width:60.000000; stroke-opacity:1; 
stroke-linecap:round; stroke-linejoin:round;">
<path d="M15500 21000
L17000 21000
" />
</g>
<g style="fill:#A90000; fill-opacity:0.0; 
stroke:#A90000; stroke-width:60.000000; stroke-opacity:1; 
stroke-linecap:round; stroke-linejoin:round;">
<text x="16250.000000" y="20900.000000"
textLength="536.181102" font-size="666.653543" lengthAdjust="spacingAndGlyphs"
text-anchor="middle" opacity="0">2</text>
<g class="stroked-text"><desc>2</desc>
<path d="M16107 20423
L16130 20400
L16178 20376
L16297 20376
L16345 20400
L16369 20423
L16392 20471
L16392 20519
L16369 20590
L16083 20876
L16392 20876
" />
</g></g>
<g style="fill:#006464; fill-opacity:0.0; 
stroke:#006464; stroke-width:60.000000; stroke-opacity:1; 
stroke-linecap:round; stroke-linejoin:round;">
<text x="15250.000000" y="18250.000000"
textLength="917.125984" font-size="666.653543" lengthAdjust="spacingAndGlyphs"
text-anchor="middle" opacity="0">J1</text>
<g class="stroked-text"><desc>J1</desc>
<path d="M15083 17726
L15083 18083
L15059 18154
L15011 18202
L14940 18226
L14892 18226
" />
<path d="M15583 18226
L15297 18226
" />
<path d="M15440 18226
L15440 17726
L15392 17797
L15345 17845
L15297 17869
" />
</g><text x="15250.000000" y="19250.000000"
textLength="6702.874016" font-size="666.653543" lengthAdjust="spacingAndGlyphs"
text-anchor="middle" opacity="0">Conn_01x02_Male</text>
<g class="stroked-text"><desc>Conn_01x02_Male</desc>
<path d="M12333 19178
L12309 19202
L12238 19226
L12190 19226
L12119 19202
L12071 19154
L12047 19107
L12023 19011
L12023 18940
L12047 18845
L12071 18797
L12119 18750
L12190 18726
L12238 18726
L12309 18750
L12333 18773
" />
<path d="M12619 19226
L12571 19202
L12547 19178
L12523 19130
L12523 18988
L12547 18940
L12571 18916
L12619 18892
L12690 18892
L12738 18916
L12761 18940
L12785 18988
L12785 19130
L12761 19178
L12738 19202
L12690 19226
L12619 19226
" />
<path d="M13000 18892
L13000 19226
" />
<path d="M13000 18940
L13023 18916
L13071 18892
L13142 18892
L13190 18916
L13214 18964
L13214 19226
" />
<path d="M13452 18892
L13452 19226
" />
<path d="M13452 18940
L13476 18916
L13523 18892
L13595 18892
L13642 18916
L13666 18964
L13666 19226
" />
<path d="M13785 19273
L14166 19273
" />
<path d="M14380 18726
L14428 18726
L14476 18750
L14500 18773
L14523 18821
L14547 18916
L14547 19035
L14523 19130
L14500 19178
L14476 19202
L14428 19226
L14380 19226
L14333 19202
L14309 19178
L14285 19130
L14261 19035
L14261 18916
L14285 18821
L14309 18773
L14333 18750
L14380 18726
" />
<path d="M15023 19226
L14738 19226
" />
<path d="M14880 19226
L14880 18726
L14833 18797
L14785 18845
L14738 18869
" />
<path d="M15190 19226
L15452 18892
" />
<path d="M15190 18892
L15452 19226
" />
<path d="M15738 18726
L15785 18726
L15833 18750
L15857 18773
L15880 18821
L15904 18916
L15904 19035
L15880 19130
L15857 19178
L15833 19202
L15785 19226
L15738 19226
L15690 19202
L15666 19178
L15642 19130
L15619 19035
L15619 18916
L15642 18821
L15666 18773
L15690 18750
L15738 18726
" />
<path d="M16095 18773
L16119 18750
L16166 18726
L16285 18726
L16333 18750
L16357 18773
L16380 18821
L16380 18869
L16357 18940
L16071 19226
L16380 19226
" />
<path d="M16476 19273
L16857 19273
" />
<path d="M16976 19226
L16976 18726
L17142 19083
L17309 18726
L17309 19226
" />
<path d="M17761 19226
L17761 18964
L17738 18916
L17690 18892
L17595 18892
L17547 18916
" />
<path d="M17761 19202
L17714 19226
L17595 19226
L17547 19202
L17523 19154
L17523 19107
L17547 19059
L17595 19035
L17714 19035
L17761 19011
" />
<path d="M18071 19226
L18023 19202
L18000 19154
L18000 18726
" />
<path d="M18452 19202
L18404 19226
L18309 19226
L18261 19202
L18238 19154
L18238 18964
L18261 18916
L18309 18892
L18404 18892
L18452 18916
L18476 18964
L18476 19011
L18238 19059
" />
</g></g>
</g>
<g style="fill:#006464; fill-opacity:0.0; 
stroke:#006464; stroke-width:60.000000; stroke-opacity:1; 
stroke-linecap:round; stroke-linejoin:round;">
<g >
</g>
<g style="fill:#840000; fill-opacity:0.0; 
stroke:#840000; stroke-width:60.000000; stroke-opacity:1; 
stroke-linecap:round; stroke-linejoin:round;">
<path style="fill:#840000; fill-opacity:0.0; 
stroke:#840000; stroke-width:60.000000; stroke-opacity:1; 
stroke-linecap:round; stroke-linejoin:round;fill:none"
d="M 79250.000000,16250.000000
78500.000000,15500.000000
" /> 
<path style="fill:#840000; fill-opacity:0.0; 
stroke:#840000; stroke-width:60.000000; stroke-opacity:1; 
stroke-linecap:round; stroke-linejoin:round;fill:none"
d="M 78500.000000,15500.000000
78500.000000,14500.000000
" /> 
<path style="fill:#840000; fill-opacity:0.0; 
stroke:#840000; stroke-width:60.000000; stroke-opacity:1; 
stroke-linecap:round; stroke-linejoin:round;fill:none"
d="M 79750.000000,16250.000000
80500.000000,15500.000000
80500.000000,15500.000000
" /> 
</g>
<g style="fill:#840000; fill-opacity:0.0; 
stroke:#840000; stroke-width:200.000000; stroke-opacity:1; 
stroke-linecap:round; stroke-linejoin:round;">
<path style="fill:#840000; fill-opacity:0.0; 
stroke:#840000; stroke-width:200.000000; stroke-opacity:1; 
stroke-linecap:round; stroke-linejoin:round;fill:none"
d="M 78750.000000,16250.000000
80250.000000,16250.000000
80250.000000,16250.000000
" /> 
</g>
<g style="fill:#840000; fill-opacity:1.0; 
stroke:#840000; stroke-width:60.000000; stroke-opacity:1; 
stroke-linecap:round; stroke-linejoin:round;">
<path style="fill:#840000; fill-opacity:1.0; 
stroke:#840000; stroke-width:60.000000; stroke-opacity:1; 
stroke-linecap:round; stroke-linejoin:round;fill-rule:evenodd;"
d="M 80200.000000,16000.000000
80000.000000,15800.000000
80400.000000,15600.000000
80200.000000,16000.000000
Z" /> 
</g>
<g style="fill:#840000; fill-opacity:0.0; 
stroke:#840000; stroke-width:100.000000; stroke-opacity:1; 
stroke-linecap:round; stroke-linejoin:round;">
<circle cx="79500.000000" cy="16000.000000" r="1110.000000" /> 
</g>
<g style="fill:#840000; fill-opacity:0.0; 
stroke:#840000; stroke-width:60.000000; stroke-opacity:1; 
stroke-linecap:round; stroke-linejoin:round;">
<path d="M79500 16250
L79500 18500
" />
</g>
<g style="fill:#A90000; fill-opacity:0.0; 
stroke:#A90000; stroke-width:60.000000; stroke-opacity:1; 
stroke-linecap:round; stroke-linejoin:round;">
<g transform="rotate(-90.000000 79600.000000 17375.000000)">
<text x="79600.000000" y="17875.000000"
textLength="536.181102" font-size="666.653543" lengthAdjust="spacingAndGlyphs"
text-anchor="middle" opacity="0">1</text>
</g>
<g class="stroked-text"><desc>1</desc>
<path d="M80076 17232
L80076 17517
" />
<path d="M80076 17375
L79576 17375
L79647 17422
L79695 17470
L79719 17517
" />
</g></g>
<g style="fill:#840000; fill-opacity:0.0; 
stroke:#840000; stroke-width:60.000000; stroke-opacity:1; 
stroke-linecap:round; stroke-linejoin:round;">
<path d="M78500 15500
L77500 15500
" />
</g>
<g style="fill:#A90000; fill-opacity:0.0; 
stroke:#A90000; stroke-width:60.000000; stroke-opacity:1; 
stroke-linecap:round; stroke-linejoin:round;">
<text x="78000.000000" y="16100.000000"
textLength="536.181102" font-size="666.653543" lengthAdjust="spacingAndGlyphs"
text-anchor="middle" opacity="0">2</text>
<g class="stroked-text"><desc>2</desc>
<path d="M77857 15623
L77880 15600
L77928 15576
L78047 15576
L78095 15600
L78119 15623
L78142 15671
L78142 15719
L78119 15790
L77833 16076
L78142 16076
" />
</g></g>
<g style="fill:#840000; fill-opacity:0.0; 
stroke:#840000; stroke-width:60.000000; stroke-opacity:1; 
stroke-linecap:round; stroke-linejoin:round;">
<path d="M80500 15500
L81500 15500
" />
</g>
<g style="fill:#A90000; fill-opacity:0.0; 
stroke:#A90000; stroke-width:60.000000; stroke-opacity:1; 
stroke-linecap:round; stroke-linejoin:round;">
<text x="81000.000000" y="16100.000000"
textLength="536.181102" font-size="666.653543" lengthAdjust="spacingAndGlyphs"
text-anchor="middle" opacity="0">3</text>
<g class="stroked-text"><desc>3</desc>
<path d="M80833 15576
L81142 15576
L80976 15766
L81047 15766
L81095 15790
L81119 15814
L81142 15861
L81142 15980
L81119 16028
L81095 16052
L81047 16076
L80904 16076
L80857 16052
L80833 16028
" />
</g></g>
<g style="fill:#840000; fill-opacity:0.0; 
stroke:#840000; stroke-width:60.000000; stroke-opacity:1; 
stroke-linecap:round; stroke-linejoin:round;">
<path d="M78500 14500
L77500 14500
" />
</g>
<g style="fill:#A90000; fill-opacity:0.0; 
stroke:#A90000; stroke-width:60.000000; stroke-opacity:1; 
stroke-linecap:round; stroke-linejoin:round;">
<text x="78000.000000" y="15100.000000"
textLength="536.181102" font-size="666.653543" lengthAdjust="spacingAndGlyphs"
text-anchor="middle" opacity="0">4</text>
<g class="stroked-text"><desc>4</desc>
<path d="M78095 14742
L78095 15076
" />
<path d="M77976 14552
L77857 14909
L78166 14909
" />
</g></g>
<g style="fill:#006464; fill-opacity:0.0; 
stroke:#006464; stroke-width:60.000000; stroke-opacity:1; 
stroke-linecap:round; stroke-linejoin:round;">
<text x="79500.000000" y="13749.960630"
textLength="1060.000000" font-size="666.653543" lengthAdjust="spacingAndGlyphs"
text-anchor="middle" opacity="0">Q1</text>
<g class="stroked-text"><desc>Q1</desc>
<path d="M79452 13773
L79404 13749
L79357 13702
L79285 13630
L79238 13607
L79190 13607
" />
<path d="M79214 13726
L79166 13702
L79119 13654
L79095 13559
L79095 13392
L79119 13297
L79166 13249
L79214 13226
L79309 13226
L79357 13249
L79404 13297
L79428 13392
L79428 13559
L79404 13654
L79357 13702
L79309 13726
L79214 13726
" />
<path d="M79904 13726
L79619 13726
" />
<path d="M79761 13726
L79761 13226
L79714 13297
L79666 13345
L79619 13368
" />
</g></g>
</g>
<g style="fill:#006464; fill-opacity:0.0; 
stroke:#006464; stroke-width:60.000000; stroke-opacity:1; 
stroke-linecap:round; stroke-linejoin:round;">
<g >
</g>
<g style="fill:#840000; fill-opacity:0.0; 
stroke:#840000; stroke-width:60.000000; stroke-opacity:1; 
stroke-linecap:round; stroke-linejoin:round;">
<path style="fill:#840000; fill-opacity:0.0; 
stroke:#840000; stroke-width:60.000000; stroke-opacity:1; 
stroke-linecap:round; stroke-linejoin:round;fill:none"
d="M 91000.000000,21500.000000
91000.000000,22000.000000
91500.000000,22000.000000
91000.000000,22500.000000
90500.000000,22000.000000
91000.000000,22000.000000
" /> 
</g>
<g style="fill:#006464; fill-opacity:0.0; 
stroke:#006464; stroke-width:60.000000; stroke-opacity:1; 
stroke-linecap:round; stroke-linejoin:round;">
<text x="91000.000000" y="23750.000000"
textLength="1583.818898" font-size="666.653543" lengthAdjust="spacingAndGlyphs"
text-anchor="middle" opacity="0">GND</text>
<g class="stroked-text"><desc>GND</desc>
<path d="M90619 23250
L90571 23226
L90500 23226
L90428 23250
L90380 23297
L90357 23345
L90333 23440
L90333 23511
L90357 23607
L90380 23654
L90428 23702
L90500 23726
L90547 23726
L90619 23702
L90642 23678
L90642 23511
L90547 23511
" />
<path d="M90857 23726
L90857 23226
L91142 23726
L91142 23226
" />
<path d="M91380 23726
L91380 23226
L91500 23226
L91571 23250
L91619 23297
L91642 23345
L91666 23440
L91666 23511
L91642 23607
L91619 23654
L91571 23702
L91500 23726
L91380 23726
" />
</g></g>
</g>
<g style="fill:#006464; fill-opacity:0.0; 
stroke:#006464; stroke-width:60.000000; stroke-opacity:1; 
stroke-linecap:round; stroke-linejoin:round;">
<g >
</g>
<g style="fill:#840000; fill-opacity:0.0; 
stroke:#840000; stroke-width:60.000000; stroke-opacity:1; 
stroke-linecap:round; stroke-linejoin:round;">
<rect x="90100.000000" y="18100.000000" width="1800.000000" height="200.000000" rx="0.000000" />
<path style="fill:#840000; fill-opacity:0.0; 
stroke:#840000; stroke-width:60.000000; stroke-opacity:1; 
stroke-linecap:round; stroke-linejoin:round;fill:none"
d="M 90300.000000,17600.000000
90700.000000,17600.000000
" /> 
<path style="fill:#840000; fill-opacity:0.0; 
stroke:#840000; stroke-width:60.000000; stroke-opacity:1; 
stroke-linecap:round; stroke-linejoin:round;fill:none"
d="M 90500.000000,17400.000000
90500.000000,17800.000000
" /> 
</g>
<g style="fill:#840000; fill-opacity:1.0; 
stroke:#840000; stroke-width:60.000000; stroke-opacity:1; 
stroke-linecap:round; stroke-linejoin:round;">
<rect x="90100.000000" y="18700.000000" width="1800.000000" height="200.000000" rx="0.000000" />
</g>
<g style="fill:#840000; fill-opacity:0.0; 
stroke:#840000; stroke-width:60.000000; stroke-opacity:1; 
stroke-linecap:round; stroke-linejoin:round;">
<path d="M91000 18100
L91000 17000
" />
<path d="M91000 18900
L91000 20000
" />
</g>
<g style="fill:#006464; fill-opacity:0.0; 
stroke:#006464; stroke-width:60.000000; stroke-opacity:1; 
stroke-linecap:round; stroke-linejoin:round;">
<text x="93019.330709" y="17899.960630"
textLength="1036.181102" font-size="666.653543" lengthAdjust="spacingAndGlyphs"
text-anchor="middle" opacity="0">C8</text>
<g class="stroked-text"><desc>C8</desc>
<path d="M92935 17828
L92912 17852
L92840 17876
L92793 17876
L92721 17852
L92674 17804
L92650 17757
L92626 17661
L92626 17590
L92650 17495
L92674 17447
L92721 17399
L92793 17376
L92840 17376
L92912 17399
L92935 17423
" />
<path d="M93221 17590
L93174 17566
L93150 17542
L93126 17495
L93126 17471
L93150 17423
L93174 17399
L93221 17376
L93316 17376
L93364 17399
L93388 17423
L93412 17471
L93412 17495
L93388 17542
L93364 17566
L93316 17590
L93221 17590
L93174 17614
L93150 17638
L93126 17685
L93126 17780
L93150 17828
L93174 17852
L93221 17876
L93316 17876
L93364 17852
L93388 17828
L93412 17780
L93412 17685
L93388 17638
L93364 17614
L93316 17590
" />
</g><text x="93709.803150" y="18899.960630"
textLength="2417.125984" font-size="666.653543" lengthAdjust="spacingAndGlyphs"
text-anchor="middle" opacity="0">1000u</text>
<g class="stroked-text"><desc>1000u</desc>
<path d="M92912 18876
L92626 18876
" />
<path d="M92769 18876
L92769 18376
L92721 18447
L92674 18495
L92626 18518
" />
<path d="M93221 18376
L93269 18376
L93316 18399
L93340 18423
L93364 18471
L93388 18566
L93388 18685
L93364 18780
L93340 18828
L93316 18852
L93269 18876
L93221 18876
L93174 18852
L93150 18828
L93126 18780
L93102 18685
L93102 18566
L93126 18471
L93150 18423
L93174 18399
L93221 18376
" />
<path d="M93697 18376
L93745 18376
L93793 18399
L93816 18423
L93840 18471
L93864 18566
L93864 18685
L93840 18780
L93816 18828
L93793 18852
L93745 18876
L93697 18876
L93650 18852
L93626 18828
L93602 18780
L93578 18685
L93578 18566
L93602 18471
L93626 18423
L93650 18399
L93697 18376
" />
<path d="M94174 18376
L94221 18376
L94269 18399
L94293 18423
L94316 18471
L94340 18566
L94340 18685
L94316 18780
L94293 18828
L94269 18852
L94221 18876
L94174 18876
L94126 18852
L94102 18828
L94078 18780
L94055 18685
L94055 18566
L94078 18471
L94102 18423
L94126 18399
L94174 18376
" />
<path d="M94769 18542
L94769 18876
" />
<path d="M94555 18542
L94555 18804
L94578 18852
L94626 18876
L94697 18876
L94745 18852
L94769 18828
" />
</g></g>
</g>
<g style="fill:#006464; fill-opacity:0.0; 
stroke:#006464; stroke-width:60.000000; stroke-opacity:1; 
stroke-linecap:round; stroke-linejoin:round;">
<g >
</g>
<g style="fill:#840000; fill-opacity:0.0; 
stroke:#840000; stroke-width:60.000000; stroke-opacity:1; 
stroke-linecap:round; stroke-linejoin:round;">
<path style="fill:#840000; fill-opacity:0.0; 
stroke:#840000; stroke-width:60.000000; stroke-opacity:1; 
stroke-linecap:round; stroke-linejoin:round;fill:none"
d="M 90700.000000,12000.000000
91000.000000,11500.000000
" /> 
<path style="fill:#840000; fill-opacity:0.0; 
stroke:#840000; stroke-width:60.000000; stroke-opacity:1; 
stroke-linecap:round; stroke-linejoin:round;fill:none"
d="M 91000.000000,12500.000000
91000.000000,11500.000000
" /> 
<path style="fill:#840000; fill-opacity:0.0; 
stroke:#840000; stroke-width:60.000000; stroke-opacity:1; 
stroke-linecap:round; stroke-linejoin:round;fill:none"
d="M 91000.000000,11500.000000
91300.000000,12000.000000
" /> 
</g>
<g style="fill:#006464; fill-opacity:0.0; 
stroke:#006464; stroke-width:60.000000; stroke-opacity:1; 
stroke-linecap:round; stroke-linejoin:round;">
<text x="91000.000000" y="10750.000000"
textLength="2060.000000" font-size="666.653543" lengthAdjust="spacingAndGlyphs"
text-anchor="middle" opacity="0">+48V</text>
<g class="stroked-text"><desc>+48V</desc>
<path d="M90119 10535
L90500 10535
" />
<path d="M90309 10726
L90309 10345
" />
<path d="M90952 10392
L90952 10726
" />
<path d="M90833 10202
L90714 10559
L91023 10559
" />
<path d="M91285 10440
L91238 10416
L91214 10392
L91190 10345
L91190 10321
L91214 10273
L91238 10250
L91285 10226
L91380 10226
L91428 10250
L91452 10273
L91476 10321
L91476 10345
L91452 10392
L91428 10416
L91380 10440
L91285 10440
L91238 10464
L91214 10488
L91190 10535
L91190 10630
L91214 10678
L91238 10702
L91285 10726
L91380 10726
L91428 10702
L91452 10678
L91476 10630
L91476 10535
L91452 10488
L91428 10464
L91380 10440
" />
<path d="M91619 10226
L91785 10726
L91952 10226
" />
</g></g>
</g>
<g style="fill:#006464; fill-opacity:0.0; 
stroke:#006464; stroke-width:60.000000; stroke-opacity:1; 
stroke-linecap:round; stroke-linejoin:round;">
<g >
</g>
<g style="fill:#840000; fill-opacity:0.0; 
stroke:#840000; stroke-width:60.000000; stroke-opacity:1; 
stroke-linecap:round; stroke-linejoin:round;">
<path style="fill:#840000; fill-opacity:0.0; 
stroke:#840000; stroke-width:60.000000; stroke-opacity:1; 
stroke-linecap:round; stroke-linejoin:round;fill:none"
d="M 86000.000000,23500.000000
86000.000000,22500.000000
" /> 
</g>
<g style="fill:#840000; fill-opacity:0.0; 
stroke:#840000; stroke-width:100.000000; stroke-opacity:1; 
stroke-linecap:round; stroke-linejoin:round;">
<path style="fill:#840000; fill-opacity:0.0; 
stroke:#840000; stroke-width:100.000000; stroke-opacity:1; 
stroke-linecap:round; stroke-linejoin:round;fill:none"
d="M 85500.000000,22500.000000
86500.000000,22500.000000
86500.000000,22700.000000
" /> 
<path style="fill:#840000; fill-opacity:0.0; 
stroke:#840000; stroke-width:100.000000; stroke-opacity:1; 
stroke-linecap:round; stroke-linejoin:round;fill:none"
d="M 85500.000000,23500.000000
86500.000000,23500.000000
86000.000000,22500.000000
Z" /> 
</g>
<g style="fill:#840000; fill-opacity:0.0; 
stroke:#840000; stroke-width:60.000000; stroke-opacity:1; 
stroke-linecap:round; stroke-linejoin:round;">
<path d="M86000 22500
L86000 21500
" />
<path d="M86000 23500
L86000 24500
" />
</g>
<g style="fill:#006464; fill-opacity:0.0; 
stroke:#006464; stroke-width:60.000000; stroke-opacity:1; 
stroke-linecap:round; stroke-linejoin:round;">
<text x="87519.330709" y="22749.960630"
textLength="1036.181102" font-size="666.653543" lengthAdjust="spacingAndGlyphs"
text-anchor="middle" opacity="0">D5</text>
<g class="stroked-text"><desc>D5</desc>
<path d="M87150 22726
L87150 22226
L87269 22226
L87340 22249
L87388 22297
L87412 22345
L87435 22440
L87435 22511
L87412 22607
L87388 22654
L87340 22702
L87269 22726
L87150 22726
" />
<path d="M87888 22226
L87650 22226
L87626 22464
L87650 22440
L87697 22416
L87816 22416
L87864 22440
L87888 22464
L87912 22511
L87912 22630
L87888 22678
L87864 22702
L87816 22726
L87697 22726
L87650 22702
L87626 22678
" />
</g><text x="87721.732283" y="23749.960630"
textLength="1440.944882" font-size="666.653543" lengthAdjust="spacingAndGlyphs"
text-anchor="middle" opacity="0">48V</text>
<g class="stroked-text"><desc>48V</desc>
<path d="M87364 23392
L87364 23726
" />
<path d="M87245 23202
L87126 23559
L87435 23559
" />
<path d="M87697 23440
L87650 23416
L87626 23392
L87602 23345
L87602 23321
L87626 23273
L87650 23249
L87697 23226
L87793 23226
L87840 23249
L87864 23273
L87888 23321
L87888 23345
L87864 23392
L87840 23416
L87793 23440
L87697 23440
L87650 23464
L87626 23488
L87602 23535
L87602 23630
L87626 23678
L87650 23702
L87697 23726
L87793 23726
L87840 23702
L87864 23678
L87888 23630
L87888 23535
L87864 23488
L87840 23464
L87793 23440
" />
<path d="M88031 23226
L88197 23726
L88364 23226
" />
</g></g>
</g>
<g style="fill:#006464; fill-opacity:0.0; 
stroke:#006464; stroke-width:60.000000; stroke-opacity:1; 
stroke-linecap:round; stroke-linejoin:round;">
<g >
</g>
<g style="fill:#840000; fill-opacity:0.0; 
stroke:#840000; stroke-width:60.000000; stroke-opacity:1; 
stroke-linecap:round; stroke-linejoin:round;">
<path style="fill:#840000; fill-opacity:0.0; 
stroke:#840000; stroke-width:60.000000; stroke-opacity:1; 
stroke-linecap:round; stroke-linejoin:round;fill:none"
d="M 86000.000000,26000.000000
86000.000000,26500.000000
86500.000000,26500.000000
86000.000000,27000.000000
85500.000000,26500.000000
86000.000000,26500.000000
" /> 
</g>
<g style="fill:#006464; fill-opacity:0.0; 
stroke:#006464; stroke-width:60.000000; stroke-opacity:1; 
stroke-linecap:round; stroke-linejoin:round;">
<text x="86000.000000" y="28250.000000"
textLength="1583.818898" font-size="666.653543" lengthAdjust="spacingAndGlyphs"
text-anchor="middle" opacity="0">GND</text>
<g class="stroked-text"><desc>GND</desc>
<path d="M85619 27750
L85571 27726
L85500 27726
L85428 27750
L85380 27797
L85357 27845
L85333 27940
L85333 28011
L85357 28107
L85380 28154
L85428 28202
L85500 28226
L85547 28226
L85619 28202
L85642 28178
L85642 28011
L85547 28011
" />
<path d="M85857 28226
L85857 27726
L86142 28226
L86142 27726
" />
<path d="M86380 28226
L86380 27726
L86500 27726
L86571 27750
L86619 27797
L86642 27845
L86666 27940
L86666 28011
L86642 28107
L86619 28154
L86571 28202
L86500 28226
L86380 28226
" />
</g></g>
</g>
<g style="fill:#006464; fill-opacity:0.0; 
stroke:#006464; stroke-width:60.000000; stroke-opacity:1; 
stroke-linecap:round; stroke-linejoin:round;">
<g >
</g>
<g style="fill:#840000; fill-opacity:0.0; 
stroke:#840000; stroke-width:60.000000; stroke-opacity:1; 
stroke-linecap:round; stroke-linejoin:round;">
<rect x="78600.000000" y="22600.000000" width="1800.000000" height="200.000000" rx="0.000000" />
<path style="fill:#840000; fill-opacity:0.0; 
stroke:#840000; stroke-width:60.000000; stroke-opacity:1; 
stroke-linecap:round; stroke-linejoin:round;fill:none"
d="M 78800.000000,22100.000000
79200.000000,22100.000000
" /> 
<path style="fill:#840000; fill-opacity:0.0; 
stroke:#840000; stroke-width:60.000000; stroke-opacity:1; 
stroke-linecap:round; stroke-linejoin:round;fill:none"
d="M 79000.000000,21900.000000
79000.000000,22300.000000
" /> 
</g>
<g style="fill:#840000; fill-opacity:1.0; 
stroke:#840000; stroke-width:60.000000; stroke-opacity:1; 
stroke-linecap:round; stroke-linejoin:round;">
<rect x="78600.000000" y="23200.000000" width="1800.000000" height="200.000000" rx="0.000000" />
</g>
<g style="fill:#840000; fill-opacity:0.0; 
stroke:#840000; stroke-width:60.000000; stroke-opacity:1; 
stroke-linecap:round; stroke-linejoin:round;">
<path d="M79500 22600
L79500 21500
" />
<path d="M79500 23400
L79500 24500
" />
</g>
<g style="fill:#006464; fill-opacity:0.0; 
stroke:#006464; stroke-width:60.000000; stroke-opacity:1; 
stroke-linecap:round; stroke-linejoin:round;">
<text x="81519.330709" y="22399.960630"
textLength="1036.181102" font-size="666.653543" lengthAdjust="spacingAndGlyphs"
text-anchor="middle" opacity="0">C7</text>
<g class="stroked-text"><desc>C7</desc>
<path d="M81435 22328
L81412 22352
L81340 22376
L81293 22376
L81221 22352
L81174 22304
L81150 22257
L81126 22161
L81126 22090
L81150 21995
L81174 21947
L81221 21899
L81293 21876
L81340 21876
L81412 21899
L81435 21923
" />
<path d="M81602 21876
L81935 21876
L81721 22376
" />
</g><text x="82209.803150" y="23399.960630"
textLength="2417.125984" font-size="666.653543" lengthAdjust="spacingAndGlyphs"
text-anchor="middle" opacity="0">1000u</text>
<g class="stroked-text"><desc>1000u</desc>
<path d="M81412 23376
L81126 23376
" />
<path d="M81269 23376
L81269 22876
L81221 22947
L81174 22995
L81126 23018
" />
<path d="M81721 22876
L81769 22876
L81816 22899
L81840 22923
L81864 22971
L81888 23066
L81888 23185
L81864 23280
L81840 23328
L81816 23352
L81769 23376
L81721 23376
L81674 23352
L81650 23328
L81626 23280
L81602 23185
L81602 23066
L81626 22971
L81650 22923
L81674 22899
L81721 22876
" />
<path d="M82197 22876
L82245 22876
L82293 22899
L82316 22923
L82340 22971
L82364 23066
L82364 23185
L82340 23280
L82316 23328
L82293 23352
L82245 23376
L82197 23376
L82150 23352
L82126 23328
L82102 23280
L82078 23185
L82078 23066
L82102 22971
L82126 22923
L82150 22899
L82197 22876
" />
<path d="M82674 22876
L82721 22876
L82769 22899
L82793 22923
L82816 22971
L82840 23066
L82840 23185
L82816 23280
L82793 23328
L82769 23352
L82721 23376
L82674 23376
L82626 23352
L82602 23328
L82578 23280
L82555 23185
L82555 23066
L82578 22971
L82602 22923
L82626 22899
L82674 22876
" />
<path d="M83269 23042
L83269 23376
" />
<path d="M83055 23042
L83055 23304
L83078 23352
L83126 23376
L83197 23376
L83245 23352
L83269 23328
" />
</g></g>
</g>
<g style="fill:#006464; fill-opacity:0.0; 
stroke:#006464; stroke-width:60.000000; stroke-opacity:1; 
stroke-linecap:round; stroke-linejoin:round;">
<g >
</g>
<g style="fill:#840000; fill-opacity:0.0; 
stroke:#840000; stroke-width:60.000000; stroke-opacity:1; 
stroke-linecap:round; stroke-linejoin:round;">
<path style="fill:#840000; fill-opacity:0.0; 
stroke:#840000; stroke-width:60.000000; stroke-opacity:1; 
stroke-linecap:round; stroke-linejoin:round;fill:none"
d="M 97500.000000,17000.000000
97500.000000,17500.000000
98000.000000,17500.000000
97500.000000,18000.000000
97000.000000,17500.000000
97500.000000,17500.000000
" /> 
</g>
<g style="fill:#006464; fill-opacity:0.0; 
stroke:#006464; stroke-width:60.000000; stroke-opacity:1; 
stroke-linecap:round; stroke-linejoin:round;">
<text x="97500.000000" y="19250.000000"
textLength="1583.818898" font-size="666.653543" lengthAdjust="spacingAndGlyphs"
text-anchor="middle" opacity="0">GND</text>
<g class="stroked-text"><desc>GND</desc>
<path d="M97119 18750
L97071 18726
L97000 18726
L96928 18750
L96880 18797
L96857 18845
L96833 18940
L96833 19011
L96857 19107
L96880 19154
L96928 19202
L97000 19226
L97047 19226
L97119 19202
L97142 19178
L97142 19011
L97047 19011
" />
<path d="M97357 19226
L97357 18726
L97642 19226
L97642 18726
" />
<path d="M97880 19226
L97880 18726
L98000 18726
L98071 18750
L98119 18797
L98142 18845
L98166 18940
L98166 19011
L98142 19107
L98119 19154
L98071 19202
L98000 19226
L97880 19226
" />
</g></g>
</g>
<g style="fill:#006464; fill-opacity:0.0; 
stroke:#006464; stroke-width:60.000000; stroke-opacity:1; 
stroke-linecap:round; stroke-linejoin:round;">
</g>
<g style="fill:#009600; fill-opacity:0.0; 
stroke:#009600; stroke-width:60.000000; stroke-opacity:1; 
stroke-linecap:round; stroke-linejoin:round;">
<path d="M61500 21500
L57000 21500
" />
<path d="M61500 20000
L61500 21500
" />
<path d="M57000 19500
L57000 21000
" />
<path d="M46500 21000
L49000 21000
" />
<path d="M49000 21000
L49000 19500
" />
<path d="M49000 15500
L49000 16500
" />
<path d="M46000 15500
L49000 15500
" />
<path d="M57000 21500
L57000 30000
" />
<path d="M57000 30000
L45000 30000
" />
<path d="M45000 30000
L45000 24000
" />
<path d="M57000 21000
L49000 21000
" />
<path d="M57000 15500
L54500 15500
" />
<path d="M49000 25000
L49000 26000
" />
<path d="M49000 15500
L51500 15500
" />
<path d="M49000 21000
L49000 22000
" />
<path d="M61500 21500
L61500 23000
" />
<path d="M61500 26000
L61500 27500
" />
<path d="M61500 15500
L57000 15500
" />
<path d="M61500 17000
L61500 15500
" />
<path d="M57000 16500
L57000 15500
" />
<path d="M73000 24500
L73000 26000
" />
<path d="M27000 21000
L27000 20000
" />
<path d="M31500 22500
L27000 22500
" />
<path d="M27000 22500
L27000 21000
" />
<path d="M33000 15500
L27000 15500
" />
<path d="M76000 15500
L77500 15500
" />
<path d="M66000 19500
L65000 19500
" />
<path d="M22500 18000
L22500 20000
" />
<path d="M27000 20000
L22500 20000
" />
<path d="M69000 19500
L70500 19500
" />
<path d="M27000 15500
L27000 20000
" />
<path d="M45000 24000
L37500 24000
" />
<path d="M41000 21000
L43500 21000
" />
<path d="M39500 26500
L39500 22500
" />
<path d="M41000 21000
L37500 21000
" />
<path d="M39500 22500
L37500 22500
" />
<path d="M61500 15500
L65000 15500
" />
<path d="M41000 15500
L43000 15500
" />
<path d="M41000 15500
L41000 21000
" />
<path d="M36000 15500
L41000 15500
" />
<path d="M22500 20000
L22500 21500
" />
<path d="M17000 20000
L22500 20000
" />
<path d="M22500 24500
L22500 26500
" />
<path d="M65000 15500
L73500 15500
" />
<path d="M65000 19500
L65000 15500
" />
<path d="M17000 21000
L17500 21000
" />
<path d="M17500 21000
L17500 21500
" />
<path d="M70500 19500
L73000 19500
" />
<path d="M73000 19500
L74000 19500
" />
<path d="M81000 10000
L84000 10000
" />
<path d="M81500 15500
L84000 15500
" />
<path d="M79500 19500
L79500 18500
" />
<path d="M77000 19500
L79500 19500
" />
<path d="M73000 19500
L73000 21500
" />
<path d="M91000 20000
L91000 21500
" />
<path d="M91000 15500
L91000 17000
" />
<path d="M91000 15500
L98000 15500
" />
<path d="M70500 19500
L70500 21500
" />
<path d="M70500 24500
L70500 26000
" />
<path d="M84000 15500
L84000 10000
" />
<path d="M91000 15500
L91000 12500
" />
<path d="M27000 21000
L31500 21000
" />
<path d="M73500 15500
L73500 10000
" />
<path d="M79500 19500
L79500 21500
" />
<path d="M86000 19500
L79500 19500
" />
<path d="M86000 21500
L86000 19500
" />
<path d="M86000 24500
L86000 26000
" />
<path d="M79500 24500
L79500 26000
" />
<path d="M73500 15500
L76000 15500
" />
<path d="M76000 14500
L76000 15500
" />
<path d="M77500 14500
L76000 14500
" />
<path d="M98000 16500
L97500 16500
" />
<path d="M97500 16500
L97500 17000
" />
<path d="M73500 10000
L78000 10000
" />
<path d="M84000 15500
L91000 15500
" />
</g>
<g style="fill:#009600; fill-opacity:1.0; 
stroke:#009600; stroke-width:60.000000; stroke-opacity:1; 
stroke-linecap:round; stroke-linejoin:round;">
<circle cx="73500.000000" cy="15500.000000" r="180.000000" /> 
<circle cx="76000.000000" cy="15500.000000" r="180.000000" /> 
<circle cx="65000.000000" cy="15500.000000" r="180.000000" /> 
<circle cx="70500.000000" cy="19500.000000" r="180.000000" /> 
<circle cx="73000.000000" cy="19500.000000" r="180.000000" /> 
<circle cx="49000.000000" cy="21000.000000" r="180.000000" /> 
<circle cx="49000.000000" cy="15500.000000" r="180.000000" /> 
<circle cx="57000.000000" cy="15500.000000" r="180.000000" /> 
<circle cx="61500.000000" cy="21500.000000" r="180.000000" /> 
<circle cx="61500.000000" cy="15500.000000" r="180.000000" /> 
<circle cx="27000.000000" cy="21000.000000" r="180.000000" /> 
<circle cx="22500.000000" cy="20000.000000" r="180.000000" /> 
<circle cx="27000.000000" cy="20000.000000" r="180.000000" /> 
<circle cx="41000.000000" cy="15500.000000" r="180.000000" /> 
<circle cx="41000.000000" cy="21000.000000" r="180.000000" /> 
<circle cx="79500.000000" cy="19500.000000" r="180.000000" /> 
<circle cx="84000.000000" cy="15500.000000" r="180.000000" /> 
<circle cx="91000.000000" cy="15500.000000" r="180.000000" /> 
</g> 
</svg>
