M48
; DRILL file {KiCad (6.0.1)} date Tue Feb 22 15:37:09 2022
; FORMAT={-:-/ absolute / metric / decimal}
; #@! TF.CreationDate,2022-02-22T15:37:09+00:00
; #@! TF.GenerationSoftware,Kicad,Pcbnew,(6.0.1)
; #@! TF.FileFunction,Plated,1,2,PTH
FMAT,2
METRIC
; #@! TA.AperFunction,Plated,PTH,ViaDrill
T1C0.400
; #@! TA.AperFunction,Plated,PTH,ComponentDrill
T2C1.000
%
G90
G05
T1
X53.594Y-69.977
X70.231Y-63.985
X86.487Y-63.627
X86.487Y-65.786
X87.757Y-66.675
X93.218Y-69.342
T2
X53.961Y-58.579
X54.633Y-60.579
X59.633Y-60.579
X60.305Y-62.579
X63.405Y-71.585
X65.405Y-65.913
X65.405Y-70.913
X67.405Y-65.241
X75.216Y-52.592
X77.216Y-46.92
X77.216Y-51.92
X79.216Y-46.248
X85.339Y-51.435
X87.879Y-51.435
X92.461Y-51.435
X95.001Y-51.435
T0
M30
