%FSLAX45Y45*%
G04 Gerber Fmt 4.5, Leading zero omitted, Abs format (unit mm)*
G04 Created by KiCad (PCBNEW (6.0.1)) date 2022-02-22 15:37:10*
%MOMM*%
%LPD*%
G01*
G04 APERTURE LIST*
%TA.AperFunction,Profile*%
%ADD10C,0.100000*%
%TD*%
%ADD11C,0.200000*%
G04 APERTURE END LIST*
D10*
X4851400Y-4279900D02*
X10071100Y-4279900D01*
X10071100Y-4279900D02*
X10071100Y-7531100D01*
X10071100Y-7531100D02*
X4851400Y-7531100D01*
X4851400Y-7531100D02*
X4851400Y-4279900D01*
D11*
X5104019Y-7846576D02*
X5104019Y-7646576D01*
X5151638Y-7646576D01*
X5180210Y-7656100D01*
X5199257Y-7675148D01*
X5208781Y-7694195D01*
X5218305Y-7732290D01*
X5218305Y-7760862D01*
X5208781Y-7798957D01*
X5199257Y-7818005D01*
X5180210Y-7837052D01*
X5151638Y-7846576D01*
X5104019Y-7846576D01*
X5304019Y-7846576D02*
X5304019Y-7713243D01*
X5304019Y-7751338D02*
X5313543Y-7732290D01*
X5323067Y-7722767D01*
X5342114Y-7713243D01*
X5361162Y-7713243D01*
X5427829Y-7846576D02*
X5427829Y-7713243D01*
X5427829Y-7646576D02*
X5418305Y-7656100D01*
X5427829Y-7665624D01*
X5437352Y-7656100D01*
X5427829Y-7646576D01*
X5427829Y-7665624D01*
X5551638Y-7846576D02*
X5532590Y-7837052D01*
X5523067Y-7818005D01*
X5523067Y-7646576D01*
X5656400Y-7846576D02*
X5637352Y-7837052D01*
X5627828Y-7818005D01*
X5627828Y-7646576D01*
X5884971Y-7846576D02*
X5884971Y-7646576D01*
X5951638Y-7789433D01*
X6018305Y-7646576D01*
X6018305Y-7846576D01*
X6199257Y-7846576D02*
X6199257Y-7741814D01*
X6189733Y-7722767D01*
X6170686Y-7713243D01*
X6132590Y-7713243D01*
X6113543Y-7722767D01*
X6199257Y-7837052D02*
X6180209Y-7846576D01*
X6132590Y-7846576D01*
X6113543Y-7837052D01*
X6104019Y-7818005D01*
X6104019Y-7798957D01*
X6113543Y-7779909D01*
X6132590Y-7770386D01*
X6180209Y-7770386D01*
X6199257Y-7760862D01*
X6294495Y-7713243D02*
X6294495Y-7913243D01*
X6294495Y-7722767D02*
X6313543Y-7713243D01*
X6351638Y-7713243D01*
X6370686Y-7722767D01*
X6380209Y-7732290D01*
X6389733Y-7751338D01*
X6389733Y-7808481D01*
X6380209Y-7827528D01*
X6370686Y-7837052D01*
X6351638Y-7846576D01*
X6313543Y-7846576D01*
X6294495Y-7837052D01*
X6475448Y-7827528D02*
X6484971Y-7837052D01*
X6475448Y-7846576D01*
X6465924Y-7837052D01*
X6475448Y-7827528D01*
X6475448Y-7846576D01*
X6475448Y-7722767D02*
X6484971Y-7732290D01*
X6475448Y-7741814D01*
X6465924Y-7732290D01*
X6475448Y-7722767D01*
X6475448Y-7741814D01*
M02*
