%TF.GenerationSoftware,KiCad,Pcbnew,(6.0.1)*%
%TF.CreationDate,2022-02-22T15:36:59+00:00*%
%TF.ProjectId,Phantom Power Supply,5068616e-746f-46d2-9050-6f7765722053,rev?*%
%TF.SameCoordinates,Original*%
%TF.FileFunction,Soldermask,Top*%
%TF.FilePolarity,Negative*%
%FSLAX46Y46*%
G04 Gerber Fmt 4.6, Leading zero omitted, Abs format (unit mm)*
G04 Created by KiCad (PCBNEW (6.0.1)) date 2022-02-22 15:36:59*
%MOMM*%
%LPD*%
G01*
G04 APERTURE LIST*
G04 Aperture macros list*
%AMRoundRect*
0 Rectangle with rounded corners*
0 $1 Rounding radius*
0 $2 $3 $4 $5 $6 $7 $8 $9 X,Y pos of 4 corners*
0 Add a 4 corners polygon primitive as box body*
4,1,4,$2,$3,$4,$5,$6,$7,$8,$9,$2,$3,0*
0 Add four circle primitives for the rounded corners*
1,1,$1+$1,$2,$3*
1,1,$1+$1,$4,$5*
1,1,$1+$1,$6,$7*
1,1,$1+$1,$8,$9*
0 Add four rect primitives between the rounded corners*
20,1,$1+$1,$2,$3,$4,$5,0*
20,1,$1+$1,$4,$5,$6,$7,0*
20,1,$1+$1,$6,$7,$8,$9,0*
20,1,$1+$1,$8,$9,$2,$3,0*%
G04 Aperture macros list end*
%ADD10O,1.700000X1.700000*%
%ADD11R,1.700000X1.700000*%
%ADD12R,1.560000X0.650000*%
%ADD13RoundRect,0.250000X0.450000X-0.350000X0.450000X0.350000X-0.450000X0.350000X-0.450000X-0.350000X0*%
%ADD14RoundRect,0.250000X0.350000X0.450000X-0.350000X0.450000X-0.350000X-0.450000X0.350000X-0.450000X0*%
%ADD15RoundRect,0.250000X-0.350000X-0.450000X0.350000X-0.450000X0.350000X0.450000X-0.350000X0.450000X0*%
%ADD16R,5.800000X6.400000*%
%ADD17R,1.200000X2.200000*%
%ADD18R,2.700000X3.600000*%
%ADD19R,3.300000X1.700000*%
%ADD20R,1.800000X3.500000*%
%ADD21R,2.000000X2.000000*%
%ADD22C,2.000000*%
%ADD23RoundRect,0.237500X0.237500X-0.300000X0.237500X0.300000X-0.237500X0.300000X-0.237500X-0.300000X0*%
%ADD24RoundRect,0.250000X-0.337500X-0.475000X0.337500X-0.475000X0.337500X0.475000X-0.337500X0.475000X0*%
%ADD25RoundRect,0.250000X0.337500X0.475000X-0.337500X0.475000X-0.337500X-0.475000X0.337500X-0.475000X0*%
%ADD26RoundRect,0.237500X-0.237500X0.300000X-0.237500X-0.300000X0.237500X-0.300000X0.237500X0.300000X0*%
%ADD27RoundRect,0.250000X-0.475000X0.337500X-0.475000X-0.337500X0.475000X-0.337500X0.475000X0.337500X0*%
G04 APERTURE END LIST*
D10*
%TO.C,J2 OUT*%
X87879000Y-51435000D03*
D11*
X85339000Y-51435000D03*
%TD*%
%TO.C,J1 IN*%
X95001000Y-51435000D03*
D10*
X92461000Y-51435000D03*
%TD*%
D12*
%TO.C,U1*%
X89455000Y-65725000D03*
X89455000Y-66675000D03*
X89455000Y-67625000D03*
X92155000Y-67625000D03*
X92155000Y-66675000D03*
X92155000Y-65725000D03*
%TD*%
D13*
%TO.C,R4*%
X58928000Y-72517000D03*
X58928000Y-70517000D03*
%TD*%
D14*
%TO.C,R3*%
X72152000Y-72113323D03*
X74152000Y-72113323D03*
%TD*%
D15*
%TO.C,R2*%
X82820000Y-66421000D03*
X84820000Y-66421000D03*
%TD*%
%TO.C,R1*%
X83693000Y-68834000D03*
X85693000Y-68834000D03*
%TD*%
D16*
%TO.C,Q1*%
X66675000Y-53907000D03*
D17*
X68955000Y-60207000D03*
X66675000Y-60207000D03*
X64395000Y-60207000D03*
%TD*%
D18*
%TO.C,L1*%
X97495000Y-59055000D03*
X89195000Y-59055000D03*
%TD*%
D19*
%TO.C,D5*%
X57741000Y-67945000D03*
X52241000Y-67945000D03*
%TD*%
D20*
%TO.C,D4*%
X72517000Y-56405323D03*
X72517000Y-61405323D03*
%TD*%
%TO.C,D3*%
X76200000Y-65365000D03*
X76200000Y-60365000D03*
%TD*%
%TO.C,D2*%
X80010000Y-60365000D03*
X80010000Y-65365000D03*
%TD*%
%TO.C,D1*%
X84455000Y-60920000D03*
X84455000Y-55920000D03*
%TD*%
D21*
%TO.C,C8*%
X77216000Y-46920323D03*
X79216000Y-46248179D03*
D22*
X77216000Y-51920323D03*
X75216000Y-52592467D03*
%TD*%
%TO.C,C7*%
X53960533Y-58579000D03*
X54632677Y-60579000D03*
D21*
X60304821Y-62579000D03*
X59632677Y-60579000D03*
%TD*%
%TO.C,C6*%
X65405000Y-70913000D03*
X63405000Y-71585144D03*
D22*
X65405000Y-65913000D03*
X67405000Y-65240856D03*
%TD*%
D23*
%TO.C,C5*%
X71755000Y-66371823D03*
X71755000Y-64646823D03*
%TD*%
D24*
%TO.C,C4*%
X79734500Y-68580000D03*
X81809500Y-68580000D03*
%TD*%
D25*
%TO.C,C3*%
X84857500Y-64135000D03*
X82782500Y-64135000D03*
%TD*%
D26*
%TO.C,C2*%
X81280000Y-55017500D03*
X81280000Y-56742500D03*
%TD*%
D27*
%TO.C,C1*%
X94869000Y-67288500D03*
X94869000Y-69363500D03*
%TD*%
M02*
